<svg width="16" height="20" viewBox="0 0 16 20" fill="none" xmlns="http://www.w3.org/2000/svg">
<rect width="16" height="20" rx="2" fill="#BFC0C0"/>
<rect x="1.6001" y="2" width="6.4" height="1" rx="0.5" fill="white"/>
<rect x="4.80005" y="15" width="3.2" height="1" rx="0.5" transform="rotate(-180 4.80005 15)" fill="white"/>
<rect x="8" y="15.013" width="2.4" height="1" rx="0.5" transform="rotate(-180 8 15.013)" fill="white"/>
<rect x="14.3999" y="15.0303" width="5.6" height="1" rx="0.5" transform="rotate(-180 14.3999 15.0303)" fill="white"/>
<rect x="11.2" y="11" width="3.2" height="1" rx="0.5" fill="white"/>
<rect x="8" y="11" width="2.4" height="1" rx="0.5" fill="white"/>
<rect x="1.6001" y="11" width="5.6" height="1" rx="0.5" fill="white"/>
<rect x="1.6001" y="8" width="12.8" height="1" rx="0.5" fill="white"/>
<rect x="1.6001" y="17" width="12.8" height="1" rx="0.5" fill="white"/>
<rect x="8.80005" y="2" width="5.6" height="1" rx="0.5" fill="white"/>
<path d="M1.6001 5.5C1.6001 5.22386 1.82396 5 2.1001 5H13.9001C14.1762 5 14.4001 5.22386 14.4001 5.5V5.5C14.4001 5.77614 14.1762 6 13.9001 6H2.1001C1.82396 6 1.6001 5.77614 1.6001 5.5V5.5Z" fill="white"/>
</svg>
