<svg width="22" height="20" viewBox="0 0 22 20" fill="none" xmlns="http://www.w3.org/2000/svg">
<path d="M11 0C10.8678 1.78565e-05 10.7368 0.0276469 10.6148 0.0812877C10.4928 0.134928 10.382 0.213516 10.2891 0.3125L0.203125 9.57648C0.140134 9.62541 0.088937 9.68922 0.0536563 9.76278C0.0183756 9.83634 -3.00769e-06 9.9176 3.69191e-10 10C3.69192e-10 10.1396 0.0526784 10.2735 0.146447 10.3722C0.240215 10.4709 0.367392 10.5263 0.5 10.5263H3V18.9474C3 19.5284 3.448 20 4 20H8C8.552 20 9 19.5284 9 18.9474V12.6316H13V18.9474C13 19.5284 13.448 20 14 20H18C18.552 20 19 19.5284 19 18.9474V10.5263H21.5C21.6326 10.5263 21.7598 10.4709 21.8536 10.3722C21.9473 10.2735 22 10.1396 22 10C22 9.9176 21.9816 9.83634 21.9463 9.76278C21.9111 9.68922 21.8599 9.62541 21.7969 9.57648L11.7168 0.318668C11.7149 0.316603 11.7129 0.314547 11.7109 0.3125C11.618 0.213516 11.5072 0.134928 11.3852 0.0812877C11.2632 0.0276469 11.1322 1.78565e-05 11 0Z" fill="#BFC0C0"/>
</svg>
