<svg width="20" height="20" viewBox="0 0 20 20" fill="none" xmlns="http://www.w3.org/2000/svg">
<path d="M9.14634 11.4865C8.90244 11.2432 8.78049 10.8919 8.78049 10.5405C8.78049 10.2432 8.87805 9.97297 9.02439 9.72973H10.9756C11.3415 10.2703 11.2927 11 10.8537 11.4865C10.3902 12.027 9.60976 12.027 9.14634 11.4865ZM11.561 12.2432C11.122 12.7297 10.561 12.973 10 12.973C9.43902 12.973 8.87805 12.7297 8.43902 12.2703C8.02439 11.8108 7.80488 11.1892 7.80488 10.5405C7.80488 10.2703 7.85366 10 7.92683 9.72973H0V18.3784C0 19.2703 0.658537 20 1.46341 20H18.5366C19.3415 20 20 19.2703 20 18.3784V9.72973H12.0732C12.3415 10.5946 12.1707 11.5676 11.561 12.2432ZM18.5366 3.24324H1.46341C0.658537 3.24324 0 3.97297 0 4.86486V8.64865H20V4.86486C20 3.97297 19.3415 3.24324 18.5366 3.24324ZM13.4146 0H6.58537V2.16216H13.4146V0Z" fill="#BFC0C0"/>
</svg>
