<svg width="16" height="20" viewBox="0 0 16 20" fill="none" xmlns="http://www.w3.org/2000/svg">
<rect x="4.80005" y="15" width="3.2" height="1" rx="0.5" transform="rotate(-180 4.80005 15)" fill="#C4C4C4"/>
<rect x="8" y="15.013" width="2.4" height="1" rx="0.5" transform="rotate(-180 8 15.013)" fill="#C4C4C4"/>
<rect x="14.3999" y="15.0303" width="5.6" height="1" rx="0.5" transform="rotate(-180 14.3999 15.0303)" fill="#C4C4C4"/>
<rect x="11.2" y="11" width="3.2" height="1" rx="0.5" fill="#C4C4C4"/>
<rect x="8" y="11" width="2.4" height="1" rx="0.5" fill="#C4C4C4"/>
<rect x="1.6001" y="11" width="5.6" height="1" rx="0.5" fill="#C4C4C4"/>
<rect x="1.6001" y="8" width="12.8" height="1" rx="0.5" fill="#C4C4C4"/>
<rect x="1.6001" y="17" width="12.8" height="1" rx="0.5" fill="#C4C4C4"/>
<rect x="8.80005" y="2" width="5.6" height="1" rx="0.5" fill="#C4C4C4"/>
<rect x="1.6001" y="5" width="12.8" height="1" rx="0.5" fill="#C4C4C4"/>
<rect x="0.5" y="0.5" width="15" height="19" rx="1.5" stroke="#BFC0C0"/>
<rect x="1.6001" y="2" width="6.4" height="1" rx="0.5" fill="#C4C4C4"/>
</svg>
