<svg width="20" height="20" viewBox="0 0 20 20" fill="none" xmlns="http://www.w3.org/2000/svg">
<path d="M0 7.86585V16.5686C0 18.4637 1.62882 20 3.63808 20H5.65504L6.4934 18.7821V18.2821M0 7.86585L0.499847 7.87822C0.499895 7.87628 0.499946 7.87434 0.5 7.87241M0 7.86585C0.0184761 7.11956 0.392359 6.42082 1.01791 5.9635L6.4934 18.2821M0 7.86585H0.5V7.87241M0.5 7.87241V16.5686C0.5 18.1604 1.87701 19.5 3.63808 19.5H5.65504H5.65844C5.87851 19.5015 6.08468 19.4198 6.23244 19.2814C6.37918 19.144 6.45571 18.9636 6.4557 18.7821L6.45569 18.2821H6.4934M0.5 7.87241C0.51626 7.29013 0.808836 6.73571 1.313 6.36714L1.31305 6.36721L1.32057 6.36149L8.18203 1.14337L8.18842 1.13851L8.19464 1.13345C9.20506 0.312532 10.7013 0.286354 11.744 1.07336L11.7441 1.07345L18.7518 6.35924C19.2315 6.73951 19.5 7.29237 19.5 7.86585V16.5775C19.5 17.3441 19.1768 18.0857 18.5913 18.6365C18.0047 19.1883 17.2035 19.502 16.3631 19.5H16.3619H14.2998C13.833 19.496 13.5066 19.1452 13.5066 18.7732V15.7152C13.5066 14.6313 12.5838 13.8018 11.508 13.8018L8.48256 13.8018L8.4796 13.8018C7.40837 13.8082 6.49338 14.6362 6.4934 15.7152V18.2821" stroke="#BFC0C0"/>
</svg>
