<svg width="22" height="20" viewBox="0 0 22 20" fill="none" xmlns="http://www.w3.org/2000/svg">
<path d="M10.6409 0.668271L10.6273 0.68074L0.541355 9.94472L0.526147 9.95869L0.509839 9.97136C0.509522 9.9716 0.507025 9.97371 0.504486 9.979C0.501911 9.98437 0.5 9.99165 0.5 9.99998V10C0.5 10.0132 0.504541 10.0221 0.507708 10.0263H3H3.5V10.5263V18.9474C3.5 19.2768 3.748 19.5 4 19.5H8C8.252 19.5 8.5 19.2768 8.5 18.9474V12.6316V12.1316H9H13H13.5V12.6316V18.9474C13.5 19.2768 13.748 19.5 14 19.5H18C18.252 19.5 18.5 19.2768 18.5 18.9474V10.5263V10.0263H19H21.4923C21.4955 10.0221 21.5 10.0132 21.5 9.99998C21.5 9.99165 21.4981 9.98437 21.4955 9.979C21.4943 9.97648 21.4931 9.97468 21.4921 9.97346C21.4911 9.97212 21.4903 9.97149 21.4902 9.97136L21.4739 9.9587L21.4587 9.94473L11.3786 0.686922L11.3653 0.67469L11.3529 0.661528L11.3499 0.65836L11.3465 0.654853L11.3465 0.654837C11.2987 0.603965 11.2432 0.565056 11.184 0.539019C11.1249 0.513033 11.0625 0.500026 11.0001 0.5L10.6409 0.668271ZM10.6409 0.668271L10.6535 0.654837M10.6409 0.668271L10.6535 0.654837M10.6535 0.654837C10.7013 0.603965 10.7568 0.565056 10.816 0.539019C10.8751 0.513033 10.9375 0.500027 10.9999 0.5L10.6535 0.654837Z" stroke="#BFC0C0"/>
</svg>
