<svg width="20" height="20" viewBox="0 0 20 20" fill="none" xmlns="http://www.w3.org/2000/svg">
<path d="M9.52594 11.1611L9.51324 11.1462L9.49942 11.1325C9.3661 10.9995 9.28049 10.7844 9.28049 10.5405C9.28049 10.4368 9.29947 10.3336 9.33632 10.2297H10.6706C10.7765 10.542 10.7107 10.8985 10.4825 11.1515L10.4823 11.1514L10.4741 11.1611C10.2102 11.4688 9.78981 11.4688 9.52594 11.1611ZM8.06783 12.6053L8.0726 12.6105L8.07752 12.6157C8.6031 13.1657 9.29159 13.473 10 13.473C10.7108 13.473 11.4041 13.1634 11.9322 12.5782C12.5181 11.929 12.7616 11.0656 12.6809 10.2297H19.5V18.3784C19.5 19.0436 19.0183 19.5 18.5366 19.5H1.46341C0.981727 19.5 0.5 19.0436 0.5 18.3784V10.2297H7.32171C7.31091 10.3319 7.30488 10.4356 7.30488 10.5405C7.30488 11.2992 7.56149 12.0442 8.06783 12.6053ZM1.46341 3.74324H18.5366C19.0183 3.74324 19.5 4.19959 19.5 4.86486V8.14865H0.5V4.86486C0.5 4.19959 0.981727 3.74324 1.46341 3.74324ZM7.08537 0.5H12.9146V1.66216H7.08537V0.5Z" stroke="#BFC0C0"/>
</svg>
