<svg width="20" height="20" viewBox="0 0 30 30" fill="none" xmlns="http://www.w3.org/2000/svg">
<g clip-path="url(#clip0_866_33)">
<path d="M29.5263 27C29.5263 28.3952 28.3952 29.5263 27 29.5263H2.99999C1.60476 29.5263 0.473663 28.3952 0.473663 27C0.473663 25.6048 1.60476 24.4737 2.99999 24.4737H27C28.3952 24.4737 29.5263 25.6048 29.5263 27Z" fill="#A5A5A5"/>
<path d="M27.6316 9.31576V23.2105C27.6316 24.6057 26.5005 25.7368 25.1052 25.7368H4.89474C3.4995 25.7368 2.36841 24.6057 2.36841 23.2105V9.31576C2.36841 7.92052 3.4995 6.78943 4.89474 6.78943H25.1052C26.5005 6.78949 27.6316 7.92058 27.6316 9.31576Z" fill="#CCCAC4"/>
<path d="M25.1053 24.4737H4.89476C4.19714 24.4737 3.63159 23.9082 3.63159 23.2105V9.31578C3.63159 8.61816 4.19708 8.05261 4.89476 8.05261H25.1053C25.8029 8.05261 26.3684 8.6181 26.3684 9.31578V23.2105C26.3684 23.9082 25.8029 24.4737 25.1053 24.4737Z" fill="#F2EFE2"/>
<path d="M23.5263 12H6.47368C5.9505 12 5.52634 11.5758 5.52634 11.0527C5.52634 10.5295 5.9505 10.1053 6.47368 10.1053H23.5263C24.0495 10.1053 24.4737 10.5295 24.4737 11.0527C24.4737 11.5758 24.0495 12 23.5263 12ZM14.3684 14.3684C14.3684 13.8452 13.9443 13.4211 13.4211 13.4211H6.47368C5.9505 13.4211 5.52634 13.8452 5.52634 14.3684C5.52634 14.8916 5.9505 15.3158 6.47368 15.3158H13.421C13.9443 15.3158 14.3684 14.8916 14.3684 14.3684ZM24.4737 14.3684C24.4737 13.8452 24.0495 13.4211 23.5263 13.4211H16.5789C16.0558 13.4211 15.6316 13.8452 15.6316 14.3684C15.6316 14.8916 16.0558 15.3158 16.5789 15.3158H23.5263C24.0495 15.3158 24.4737 14.8916 24.4737 14.3684Z" fill="#BFBBA3"/>
<path d="M23.5263 22.2632H6.47368C5.9505 22.2632 5.52634 21.839 5.52634 21.3158V17.5263C5.52634 17.0031 5.9505 16.579 6.47368 16.579H23.5263C24.0495 16.579 24.4737 17.0031 24.4737 17.5263V21.3158C24.4737 21.839 24.0495 22.2632 23.5263 22.2632Z" fill="#FFD880"/>
<path d="M8.40007 21.7087L8.26776 21.841L8.27262 21.8459L7.18893 22.9296C7.11118 23.0073 7.00571 23.0511 6.89573 23.0511C6.78575 23.0511 6.68028 23.0073 6.60253 22.9296L5.51895 21.8459L5.52382 21.841L5.39151 21.7087C5.01264 21.3299 5.01264 20.7156 5.39151 20.3368C5.77038 19.9579 6.38462 19.9579 6.76348 20.3368L6.89579 20.4691L7.02809 20.3368C7.40696 19.9579 8.0212 19.9579 8.40007 20.3368C8.77893 20.7156 8.77893 21.3299 8.40007 21.7087Z" fill="#FC8059"/>
<path d="M21.8211 17.0632L20.5579 18.7474C20.3053 19.0842 19.8 19.0842 19.5474 18.7474L18.2842 17.0632C18.2023 16.9539 18.1579 16.8209 18.1579 16.6843V1.73684C18.1579 1.03923 18.7234 0.473679 19.4211 0.473679H20.6842C21.3819 0.473679 21.9474 1.03917 21.9474 1.73684V16.6842C21.9473 16.8209 21.9031 16.9539 21.8211 17.0632Z" fill="#D6A154"/>
<path d="M21.4737 17.5263L20.5579 18.7474C20.3053 19.0842 19.8 19.0842 19.5474 18.7474L18.6316 17.5263H21.4737Z" fill="#B26932"/>
<path d="M18.1579 15V1.73684C18.1579 1.03923 18.7234 0.473679 19.4211 0.473679H20.6842C21.3819 0.473679 21.9474 1.03917 21.9474 1.73684V15H18.1579Z" fill="#FFD880"/>
<path d="M20.0527 15V0.473679H20.6842C21.3819 0.473679 21.9474 1.03917 21.9474 1.73684V15H20.0527Z" fill="#FCC159"/>
<path d="M21.9473 1.73684V3.00001H18.1579V1.73684C18.1579 1.03923 18.7233 0.473679 19.421 0.473679H20.6842C21.3819 0.473679 21.9473 1.03923 21.9473 1.73684Z" fill="#FC8059"/>
<path d="M27.9532 24.1545C28.0519 23.8576 28.1053 23.5402 28.1053 23.2106V9.31576C28.1053 7.6616 26.7595 6.31576 25.1053 6.31576H22.4211V1.73684C22.4211 0.77918 21.6419 0 20.6842 0H19.421C18.4634 0 17.6842 0.77918 17.6842 1.73684V6.31576H4.89475C3.24059 6.31576 1.89475 7.6616 1.89475 9.31576V23.2105C1.89475 23.5402 1.94818 23.8576 2.04686 24.1545C0.845508 24.5546 0 25.6856 0 27C0 28.6542 1.34584 30 3 30H27C28.6542 30 30 28.6542 30 27C30 25.6856 29.1545 24.5546 27.9532 24.1545ZM18.6316 1.73684C18.6316 1.30148 18.9857 0.947344 19.4211 0.947344H20.6842C21.1196 0.947344 21.4737 1.30148 21.4737 1.73684V2.52633H18.6316V1.73684H18.6316ZM21.4737 3.47367V14.5263H20.5263V3.47367H21.4737ZM18.6316 3.47367H19.5789V14.5263H18.6316V3.47367ZM18.6316 15.4737H21.4737V16.6842C21.4737 16.7181 21.4624 16.7518 21.4421 16.779L20.1789 18.4631C20.1377 18.5181 20.0821 18.5263 20.0526 18.5263C20.0231 18.5263 19.9675 18.5181 19.9263 18.4631L18.6632 16.7791C18.6428 16.7518 18.6315 16.7181 18.6315 16.6842V15.4737H18.6316ZM2.84209 9.31576C2.84209 8.18391 3.76289 7.26311 4.89475 7.26311H17.6842V16.6842C17.6842 16.9216 17.7627 17.1571 17.9053 17.3473L19.1685 19.0315C19.3792 19.3125 19.7014 19.4736 20.0527 19.4736C20.404 19.4736 20.7263 19.3124 20.937 19.0315L22.2001 17.3474C22.3427 17.1573 22.4212 16.9218 22.4212 16.6842V7.26316H25.1054C26.2373 7.26316 27.1581 8.18397 27.1581 9.31582V23.2106C27.1581 24.3424 26.2373 25.2632 25.1054 25.2632H4.89475C3.76289 25.2632 2.84209 24.3424 2.84209 23.2106V9.31576ZM27 29.0527H3C1.86814 29.0527 0.947344 28.1319 0.947344 27C0.947344 26.0474 1.59604 25.2356 2.49574 25.01C3.04354 25.7385 3.915 26.2106 4.89475 26.2106H25.1053C26.0849 26.2106 26.9565 25.7385 27.5043 25.01C28.404 25.2356 29.0527 26.0475 29.0527 27C29.0527 28.1319 28.1319 29.0527 27 29.0527ZM10.1053 27.6316C10.1053 27.8933 9.89326 28.1053 9.63158 28.1053H4.57893C4.31725 28.1053 4.10525 27.8933 4.10525 27.6316C4.10525 27.3699 4.31725 27.1579 4.57893 27.1579H9.63158C9.89326 27.1579 10.1053 27.3699 10.1053 27.6316ZM25.8947 27.6316C25.8947 27.8933 25.6828 28.1053 25.4211 28.1053H15.9473C15.6857 28.1053 15.4737 27.8933 15.4737 27.6316C15.4737 27.3699 15.6857 27.1579 15.9473 27.1579H25.421C25.6827 27.1579 25.8947 27.3699 25.8947 27.6316ZM14.2737 27.6316C14.2737 27.8933 14.0617 28.1053 13.8 28.1053H13.7368C13.4752 28.1053 13.2632 27.8933 13.2632 27.6316C13.2632 27.3699 13.4752 27.1579 13.7368 27.1579H13.8C14.0617 27.1579 14.2737 27.3699 14.2737 27.6316ZM12.3158 27.6316C12.3158 27.8933 12.1038 28.1053 11.8421 28.1053H11.7789C11.5172 28.1053 11.3053 27.8933 11.3053 27.6316C11.3053 27.3699 11.5172 27.1579 11.7789 27.1579H11.8421C12.1038 27.1579 12.3158 27.3699 12.3158 27.6316Z" fill="#4C4C4C"/>
</g>
<defs>
<clipPath id="clip0_866_33">
<rect width="30" height="30" fill="white"/>
</clipPath>
</defs>
</svg>
