<svg width="70" height="70" viewBox="0 0 70 70" fill="none" xmlns="http://www.w3.org/2000/svg">
<g clip-path="url(#clip0_743_65)">
<path d="M16.25 52.135C14.3437 52.135 12.6525 53.2338 11.8137 54.8663C13.6537 55.3263 15.2287 56.46 16.25 57.9987C17.2712 56.4612 18.8462 55.3263 20.6862 54.8663C19.8475 53.2325 18.1562 52.135 16.25 52.135Z" fill="#F8CF26"/>
<path d="M22.5 27.135C25.2614 27.135 27.5 24.8964 27.5 22.135C27.5 19.3736 25.2614 17.135 22.5 17.135C19.7386 17.135 17.5 19.3736 17.5 22.135C17.5 24.8964 19.7386 27.135 22.5 27.135Z" fill="#F8CF26"/>
<path d="M7.5 10H8.75C9.14375 10 9.51375 10.0025 9.75 10.3175L11.25 12.135V10.885C11.25 10.1938 11.81 10 12.5 10H21.25C21.9388 10 22.5 9.07375 22.5 8.385V3.385C22.5 2.695 21.9388 2.5 21.25 2.5H7.5C6.81125 2.5 6.25 2.695 6.25 3.38375V8.38375C6.25 9.07375 6.81125 10 7.5 10ZM8.75 5H20V7.5H8.75V5Z" fill="#EF8354"/>
<path d="M10 67.135C12.7614 67.135 15 64.8964 15 62.135C15 59.3736 12.7614 57.135 10 57.135C7.23858 57.135 5 59.3736 5 62.135C5 64.8964 7.23858 67.135 10 67.135Z" fill="#F8CF26"/>
<path d="M15.8837 38.75C16.1175 38.985 16.25 39.3025 16.25 39.635V49.635C18.7875 49.635 21.0712 50.9362 22.4375 52.9388C23.8025 50.9362 26.0875 49.635 28.625 49.635C28.6675 49.635 28.7075 49.645 28.75 49.6462V39.635C28.75 39.1612 29.0175 38.7287 29.4412 38.5162L39.26 33.6075L46.9825 25.885L44.935 23.8375L37.0637 30.585C36.9675 30.6675 36.8587 30.735 36.7425 30.785L27.9925 34.7175C27.8362 34.7825 27.6687 35 27.5 35H17.5C17.2075 35 16.925 34.715 16.7 34.5275L9.19999 28.1862C9.03374 28.0475 8.90624 27.8225 8.82999 27.6187L5.47249 18.64L2.86249 19.2812L6.09249 28.965L15.8837 38.75ZM20 37.5H25V40H23.75V50H21.25V40H20V37.5Z" fill="#2D3142"/>
<path d="M52.0225 33.75H60.4775L61.7275 31.25H53.2725L52.0225 33.75Z" fill="#F8CF26"/>
<path d="M22.5 67.135C25.2614 67.135 27.5 64.8964 27.5 62.135C27.5 59.3736 25.2614 57.135 22.5 57.135C19.7386 57.135 17.5 59.3736 17.5 62.135C17.5 64.8964 19.7386 67.135 22.5 67.135Z" fill="#F8CF26"/>
<path d="M24.2025 54.8362C26.0912 55.2775 27.7075 56.4275 28.75 57.9962C29.7512 56.4887 31.2825 55.37 33.075 54.8925C32.2412 53.2437 30.5412 52.1325 28.625 52.1325C26.73 52.135 25.0475 53.22 24.2025 54.8362Z" fill="#F8CF26"/>
<path d="M45.8838 21.25L49.6338 25C50.1225 25.4888 50.1225 26.2787 49.6338 26.7675L40.8838 35.5175C40.7888 35.6125 40.6787 35.6912 40.5587 35.7525L36.3663 38.0312C36.6763 39.0612 37.6213 40 38.75 40H65C66.3787 40 67.5 38.5138 67.5 37.135V4.635C67.5 3.255 66.3787 2.5 65 2.5H38.75C37.3712 2.5 36.25 3.255 36.25 4.63375V27.9875L44.1862 21.185C44.6825 20.7612 45.42 20.7887 45.8838 21.25ZM50 7.135C50 6.44375 50.56 6.25 51.25 6.25H63.75C64.44 6.25 65 6.44375 65 7.135V12.135C65 12.825 64.44 13.75 63.75 13.75H58.75V16.51L63.25 19.885C63.565 20.1213 63.75 20.4913 63.75 20.885C63.75 21.2787 63.565 21.6487 63.25 21.885L58.75 25.26V28.75H63.75C64.1838 28.75 64.585 28.7912 64.8138 29.16C65.0413 29.5287 65.0625 29.8975 64.8688 30.285L62.3688 35.4225C62.1562 35.845 61.7237 36.25 61.25 36.25H50C49.5662 36.25 49.1637 35.8425 48.9362 35.475C48.7087 35.1063 48.6875 34.555 48.8812 34.1675L51.3812 29.305C51.5937 28.88 52.0262 28.75 52.5 28.75H56.25V25.2588L51.75 21.8838C51.435 21.6488 51.25 21.2775 51.25 20.8838C51.25 20.49 51.435 20.12 51.75 19.8837L56.25 16.5087V13.75H51.25C50.56 13.75 50 12.825 50 12.135V7.135ZM38.75 6.25H47.5V8.75H38.75V6.25ZM38.75 11.25H47.5V13.75H38.75V11.25ZM38.75 16.25H47.5V18.75H38.75V16.25Z" fill="#BFC0C0"/>
<path d="M62.5 8.75H52.5V11.25H62.5V8.75Z" fill="#EF8354"/>
<path d="M53.75 57.9975C54.71 56.5525 56.1562 55.46 57.8537 54.9513C57.0312 53.2713 55.3137 52.135 53.3737 52.135C51.5 52.135 49.8325 53.1963 48.9787 54.7825C50.965 55.1813 52.6662 56.3663 53.75 57.9975Z" fill="#F8CF26"/>
<path d="M60 67.135C62.7614 67.135 65 64.8964 65 62.135C65 59.3736 62.7614 57.135 60 57.135C57.2386 57.135 55 59.3736 55 62.135C55 64.8964 57.2386 67.135 60 67.135Z" fill="#F8CF26"/>
<path d="M41.25 57.9975C42.23 56.5213 43.72 55.4163 45.465 54.9225C44.6375 53.2588 42.9287 52.135 41 52.135C39.1162 52.135 37.4412 53.2075 36.5925 54.8088C38.5287 55.2288 40.1875 56.3975 41.25 57.9975Z" fill="#F8CF26"/>
<path d="M47.5 67.135C50.2614 67.135 52.5 64.8964 52.5 62.135C52.5 59.3736 50.2614 57.135 47.5 57.135C44.7386 57.135 42.5 59.3736 42.5 62.135C42.5 64.8964 44.7386 67.135 47.5 67.135Z" fill="#F8CF26"/>
<path d="M35 67.135C37.7614 67.135 40 64.8964 40 62.135C40 59.3736 37.7614 57.135 35 57.135C32.2386 57.135 30 59.3736 30 62.135C30 64.8964 32.2386 67.135 35 67.135Z" fill="#F8CF26"/>
<path d="M54.5825 20.885L57.5 23.0725L60.4162 20.885L57.5 18.6975L54.5825 20.885Z" fill="#2D3142"/>
<path d="M15 22.135C15 26.2712 18.3637 29.635 22.5 29.635C26.6362 29.635 30 26.2712 30 22.135C30 17.9987 26.6362 14.635 22.5 14.635C18.3637 14.635 15 17.9987 15 22.135ZM27.5 22.135C27.5 24.8925 25.2575 27.135 22.5 27.135C19.7425 27.135 17.5 24.8925 17.5 22.135C17.5 19.3775 19.7425 17.135 22.5 17.135C25.2575 17.135 27.5 19.3775 27.5 22.135Z" fill="black"/>
<path d="M20 40H21.25V50H23.75V40H25V37.5H20V40Z" fill="black"/>
<path d="M65.0001 0H38.7501C35.9926 0 33.7501 1.8775 33.7501 4.63375V29.345L27.2438 32.5H17.9526L11.0551 26.5687L7.42007 16.7875C7.19632 16.1925 6.56007 15.8162 5.94632 15.9675L0.946317 17.195C0.608817 17.2787 0.321317 17.4888 0.153817 17.795C-0.013683 18.1012 -0.046183 18.4563 0.063817 18.7863L3.81382 30.0338C3.87507 30.2175 3.97882 30.3838 4.11632 30.52L13.7501 40.1525V50.07C11.6313 50.825 9.93632 52.515 9.18382 54.6812C5.43007 55.0887 2.50007 58.275 2.50007 62.135C2.50007 63.4287 2.82882 64.6462 3.40757 65.71L1.61632 67.5C1.38132 67.735 1.25007 68.0525 1.25007 68.385V70H3.75007V68.9025L4.97007 67.6825C6.30257 68.8913 8.06382 69.635 10.0001 69.635C12.6076 69.635 14.9051 68.2962 16.2501 66.2725C17.5938 68.2962 19.8926 69.635 22.5001 69.635C25.1076 69.635 27.4051 68.2962 28.7501 66.2725C30.0938 68.2962 32.3926 69.635 35.0001 69.635C37.6076 69.635 39.9051 68.2962 41.2501 66.2725C42.5938 68.2962 44.8926 69.635 47.5001 69.635C50.1076 69.635 52.4051 68.2962 53.7501 66.2725C55.0938 68.2962 57.3926 69.635 60.0001 69.635C61.9363 69.635 63.6976 68.8913 65.0301 67.6825L66.2501 68.9025V70H68.7501V68.385C68.7501 68.0537 68.6176 67.735 68.3838 67.5013L66.5926 65.71C67.1713 64.645 67.5001 63.4275 67.5001 62.135C67.5001 58.1463 64.3676 54.8838 60.4351 54.6575C59.3951 51.7 56.5826 49.635 53.3751 49.635C50.8376 49.635 48.5538 50.9362 47.1876 52.9375C45.8226 50.935 43.5376 49.635 41.0001 49.635C38.4626 49.635 36.1788 50.9363 34.8126 52.9388C33.9413 51.6613 32.7026 50.6663 31.2501 50.12V40.4087L34.1113 39.1613C34.8476 41.005 36.6451 42.5 38.7501 42.5H65.0001C67.7576 42.5 70.0001 39.8913 70.0001 37.135V4.635C70.0001 1.8775 67.7576 0 65.0001 0ZM16.2501 52.135C18.1563 52.135 19.8476 53.2338 20.6863 54.8663C18.8463 55.3263 17.2713 56.46 16.2501 57.9987C15.2288 56.4612 13.6538 55.3263 11.8138 54.8663C12.6526 53.2325 14.3438 52.135 16.2501 52.135ZM10.0001 67.135C7.24257 67.135 5.00007 64.8925 5.00007 62.135C5.00007 59.3775 7.24257 57.135 10.0001 57.135C12.7576 57.135 15.0001 59.3775 15.0001 62.135C15.0001 64.8925 12.7576 67.135 10.0001 67.135ZM22.5001 67.135C19.7426 67.135 17.5001 64.8925 17.5001 62.135C17.5001 59.3775 19.7426 57.135 22.5001 57.135C25.2576 57.135 27.5001 59.3775 27.5001 62.135C27.5001 64.8925 25.2576 67.135 22.5001 67.135ZM35.0001 67.135C32.2426 67.135 30.0001 64.8925 30.0001 62.135C30.0001 59.3775 32.2426 57.135 35.0001 57.135C37.7576 57.135 40.0001 59.3775 40.0001 62.135C40.0001 64.8925 37.7576 67.135 35.0001 67.135ZM47.5001 67.135C44.7426 67.135 42.5001 64.8925 42.5001 62.135C42.5001 59.3775 44.7426 57.135 47.5001 57.135C50.2576 57.135 52.5001 59.3775 52.5001 62.135C52.5001 64.8925 50.2576 67.135 47.5001 67.135ZM65.0001 62.135C65.0001 64.8925 62.7576 67.135 60.0001 67.135C57.2426 67.135 55.0001 64.8925 55.0001 62.135C55.0001 59.3775 57.2426 57.135 60.0001 57.135C62.7576 57.135 65.0001 59.3775 65.0001 62.135ZM53.3751 52.135C55.3151 52.135 57.0313 53.2712 57.8551 54.9512C56.1563 55.46 54.7101 56.5525 53.7513 57.9975C52.6676 56.3662 50.9663 55.1813 48.9813 54.7825C49.8338 53.195 51.5013 52.135 53.3751 52.135ZM41.0001 52.135C42.9288 52.135 44.6376 53.2588 45.4651 54.9225C43.7201 55.4162 42.2301 56.5212 41.2501 57.9975C40.1876 56.3975 38.5288 55.2287 36.5926 54.8088C37.4413 53.2075 39.1163 52.135 41.0001 52.135ZM33.0751 54.8938C31.2826 55.3713 29.7501 56.49 28.7501 57.9975C27.7076 56.4287 26.0913 55.2775 24.2026 54.8375C25.0463 53.22 26.7288 52.135 28.6238 52.135C30.5413 52.135 32.2413 53.245 33.0751 54.8938ZM29.4413 38.5163C29.0176 38.7275 28.7501 39.1613 28.7501 39.635V49.6462C28.7076 49.645 28.6676 49.635 28.6251 49.635C26.0876 49.635 23.8038 50.9363 22.4376 52.9388C21.0713 50.9363 18.7876 49.635 16.2501 49.635V39.635C16.2501 39.3037 16.1176 38.985 15.8838 38.7513L6.09257 28.96L2.86257 19.27L5.47132 18.6175L8.82882 27.5737C8.90507 27.7775 9.03257 27.9562 9.19882 28.095L16.6988 34.5275C16.9251 34.715 17.2076 35 17.5001 35H27.5001C27.6688 35 27.8363 34.7825 27.9926 34.7163L36.7426 30.875C36.8588 30.825 36.9676 30.7125 37.0638 30.63L44.9351 23.86L46.9826 25.8962L39.2601 33.6138L29.4413 38.5163ZM67.5001 37.135C67.5001 38.5138 66.3788 40 65.0001 40H38.7501C37.6213 40 36.6763 39.0612 36.3663 38.0312L40.5588 35.8438C40.6788 35.7837 40.7888 35.6587 40.8838 35.5638L49.6338 26.7913C50.1226 26.3025 50.1226 25.5 49.6338 25.0125L45.8838 21.2562C45.4201 20.795 44.6826 20.7638 44.1863 21.1875L36.2501 27.9875V4.63375C36.2501 3.255 37.3713 2.5 38.7501 2.5H65.0001C66.3788 2.5 67.5001 3.255 67.5001 4.63375V37.135Z" fill="black"/>
<path d="M63.75 6.25H51.25C50.56 6.25 50 6.44375 50 7.135V12.135C50 12.825 50.56 13.75 51.25 13.75H56.25V16.51L51.75 19.885C51.435 20.1213 51.25 20.4913 51.25 20.885C51.25 21.2788 51.435 21.6487 51.75 21.885L56.25 25.26V28.75H52.5C52.0262 28.75 51.5937 28.835 51.3812 29.2575L48.8812 34.1663C48.6875 34.5538 48.7087 35.1513 48.9362 35.52C49.1637 35.8888 49.5662 36.25 50 36.25H61.25C61.7237 36.25 62.1562 35.8 62.3675 35.3763L64.8675 30.285C65.0612 29.8975 65.04 29.5737 64.8125 29.205C64.585 28.8375 64.1837 28.75 63.75 28.75H58.75V25.2588L63.25 21.8837C63.565 21.6488 63.75 21.2775 63.75 20.8838C63.75 20.49 63.565 20.12 63.25 19.8837L58.75 16.5087V13.75H63.75C64.44 13.75 65 12.825 65 12.135V7.135C65 6.44375 64.44 6.25 63.75 6.25ZM60.4775 33.75H52.0225L53.2725 31.25H61.7275L60.4775 33.75ZM57.5 23.0725L54.5825 20.885L57.5 18.6975L60.4162 20.885L57.5 23.0725ZM62.5 11.25H52.5V8.75H62.5V11.25Z" fill="black"/>
<path d="M7.5 12.5H8.125L11.5 16.8175C11.74 17.1375 12.1138 17.2262 12.5 17.2262C12.6313 17.2262 12.765 17.16 12.895 17.1162C13.4062 16.9462 13.75 16.4225 13.75 15.885V12.5H21.25C23.3175 12.5 25 10.4525 25 8.385V3.385C25 1.31625 23.3175 0 21.25 0H7.5C5.4325 0 3.75 1.31625 3.75 3.38375V8.38375C3.75 10.4525 5.4325 12.5 7.5 12.5ZM6.25 3.38375C6.25 2.695 6.81125 2.5 7.5 2.5H21.25C21.9387 2.5 22.5 2.695 22.5 3.38375V8.38375C22.5 9.07375 21.9387 10 21.25 10H12.5C11.81 10 11.25 10.1938 11.25 10.885V12.135L9.75 10.3175C9.51375 10.0025 9.14375 10 8.75 10H7.5C6.81125 10 6.25 9.07375 6.25 8.385V3.38375Z" fill="black"/>
<path d="M20 5H8.75V7.5H20V5Z" fill="black"/>
<path d="M47.5 6.25H38.75V8.75H47.5V6.25Z" fill="black"/>
<path d="M47.5 11.25H38.75V13.75H47.5V11.25Z" fill="black"/>
<path d="M47.5 16.25H38.75V18.75H47.5V16.25Z" fill="black"/>
<path d="M70 44.635H67.5V47.135H70V44.635Z" fill="black"/>
<path d="M65 44.635H62.5V47.135H65V44.635Z" fill="black"/>
<path d="M60 44.635H57.5V47.135H60V44.635Z" fill="black"/>
</g>
<defs>
<clipPath id="clip0_743_65">
<rect width="70" height="70" fill="white"/>
</clipPath>
</defs>
</svg>
