<svg width="70" height="70" viewBox="0 0 70 70" fill="none" xmlns="http://www.w3.org/2000/svg">
<g clip-path="url(#clip0_775_23)">
<path d="M35 70C54.33 70 70 54.33 70 35C70 15.67 54.33 0 35 0C15.67 0 0 15.67 0 35C0 54.33 15.67 70 35 70Z" fill="#2D3142"/>
<path d="M24.2594 22.0231L35 33.4783L45.7406 22.0231L47.2566 23.4492L36.4261 35L47.2566 46.5508L45.7406 47.977L35 36.5217L24.2594 47.977L22.7443 46.5508L33.5739 35L22.7443 23.4492L24.2594 22.0231Z" fill="white"/>
<path d="M35 26.7831C39.5379 26.7831 43.2185 30.4621 43.2185 35C43.2185 39.5379 39.5379 43.2177 35 43.2177C30.4621 43.2177 26.7823 39.5379 26.7823 35C26.7823 30.4621 30.4621 26.7831 35 26.7831Z" fill="#ECF0F1"/>
<path d="M35 27.4781C39.1541 27.4781 42.5219 30.8449 42.5219 35C42.5219 39.1533 39.155 42.5219 35 42.5219C30.8467 42.5219 27.478 39.1534 27.478 35C27.478 30.8451 30.8467 27.4781 35 27.4781Z" fill="#FFE356"/>
<path d="M32.1971 37.8639H32.393L33.5417 37.2373L33.7286 36.5061C33.4552 36.2302 33.172 35.7626 32.9151 35.187C32.8945 35.1903 32.8732 35.192 32.8509 35.192C32.5471 35.192 32.2464 34.8618 32.179 34.4542C32.1264 34.1347 32.2317 33.863 32.4261 33.7601C32.1692 32.45 31.9987 30.4385 34.2549 29.9411C35.6085 29.643 36.0918 30.688 36.1512 30.8024C36.9704 30.3429 37.4909 31.0321 37.6242 31.3969C37.8663 32.0564 37.7872 33.2833 37.6637 33.8252C37.8004 33.9553 37.8663 34.1883 37.8217 34.4542C37.755 34.8552 37.4635 35.1813 37.1647 35.192C36.9234 35.7215 36.6007 36.1759 36.2712 36.5061L36.4581 37.2373H36.4737L37.5911 37.8639H37.8027C39.1812 37.8639 40.3248 38.8775 40.4689 40.1628C39.0971 41.6154 37.1539 42.5228 34.999 42.5228C32.8442 42.5228 30.9008 41.6154 29.5291 40.1628C29.6732 38.8751 30.8169 37.8639 32.1953 37.8639H32.1971Z" fill="white"/>
<path d="M20.3284 11.3326C24.7568 11.3326 28.3484 14.9219 28.3484 19.3502C28.3484 23.7777 24.7566 27.3694 20.3284 27.3694C15.9002 27.3694 12.3092 23.7776 12.3092 19.3502C12.3092 14.9219 15.9002 11.3326 20.3284 11.3326Z" fill="#ECF0F1"/>
<path d="M20.3284 42.6306C24.7568 42.6306 28.3484 46.2199 28.3484 50.6482C28.3484 55.0764 24.7566 58.6682 20.3284 58.6682C15.9002 58.6682 12.3092 55.0764 12.3092 50.6482C12.3092 46.2199 15.9002 42.6306 20.3284 42.6306Z" fill="#ECF0F1"/>
<path d="M49.6724 42.6306C54.1008 42.6306 57.6916 46.2199 57.6916 50.6482C57.6916 55.0764 54.1007 58.6682 49.6724 58.6682C45.2442 58.6682 41.6524 55.0764 41.6524 50.6482C41.6524 46.2199 45.244 42.6306 49.6724 42.6306Z" fill="#ECF0F1"/>
<path d="M49.6724 11.3326C54.1008 11.3326 57.6916 14.9219 57.6916 19.3502C57.6916 23.7777 54.1007 27.3694 49.6724 27.3694C45.2442 27.3694 41.6524 23.7776 41.6524 19.3502C41.6524 14.9219 45.244 11.3326 49.6724 11.3326Z" fill="#ECF0F1"/>
<path d="M20.3284 12.1849C24.2858 12.1849 27.4954 15.3929 27.4954 19.3503C27.4954 23.3077 24.2858 26.5173 20.3284 26.5173C16.371 26.5173 13.1614 23.3077 13.1614 19.3503C13.1614 15.3929 16.3712 12.1849 20.3284 12.1849Z" fill="#EF8354"/>
<path d="M17.724 22.1893H17.906L18.9731 21.6071L19.1469 20.9278C18.8924 20.6709 18.6298 20.2361 18.3909 19.7025C18.3711 19.7058 18.3514 19.7066 18.3308 19.7066C18.0491 19.7066 17.7701 19.3995 17.7067 19.0207C17.6573 18.7243 17.756 18.4715 17.9355 18.3759C17.6967 17.1589 17.5386 15.2897 19.6351 14.8279C20.8925 14.5503 21.3421 15.522 21.3963 15.6282C22.158 15.2008 22.6413 15.8415 22.7657 16.1807C22.9905 16.7934 22.9172 17.9321 22.8028 18.4361C22.9295 18.5571 22.9905 18.7736 22.9493 19.0207C22.8875 19.3928 22.6159 19.6959 22.3392 19.7058C22.1152 20.1982 21.8147 20.6198 21.5091 20.927L21.6829 21.6063H21.6977L22.7351 22.1885H22.9327C24.2386 22.1885 25.3172 23.1675 25.4169 24.3945C24.1183 25.7045 22.3176 26.5164 20.3273 26.5164C18.3379 26.5164 16.5372 25.7045 15.2386 24.3945C15.3374 23.1651 16.4168 22.1885 17.7228 22.1885L17.724 22.1893Z" fill="white"/>
<path d="M49.6716 12.1849C53.6306 12.1849 56.8386 15.3929 56.8386 19.3503C56.8386 23.3077 53.6306 26.5173 49.6716 26.5173C45.7142 26.5173 42.5062 23.3077 42.5062 19.3503C42.5062 15.3929 45.7142 12.1849 49.6716 12.1849Z" fill="#83CF8F"/>
<path d="M47.0671 22.1893H47.2499L48.317 21.6071L48.4907 20.9278C48.2363 20.6709 47.9737 20.2361 47.734 19.7025C47.715 19.7058 47.6953 19.7066 47.6746 19.7066C47.393 19.7066 47.1131 19.3995 47.0505 19.0207C47.0012 18.7243 47.0999 18.4715 47.2794 18.3759C47.0405 17.1589 46.8825 15.2897 48.979 14.8279C50.2364 14.5503 50.6859 15.522 50.7402 15.6282C51.5019 15.2008 51.9852 15.8415 52.1096 16.1807C52.3344 16.7934 52.2611 17.9321 52.1466 18.4361C52.2726 18.5571 52.3344 18.7736 52.2932 19.0207C52.2314 19.3928 51.9597 19.6959 51.683 19.7058C51.4591 20.1982 51.1586 20.6198 50.853 20.927L51.0268 21.6063H51.0415L52.0791 22.1885H52.2767C53.5826 22.1885 54.6612 23.1675 54.7609 24.3945C53.4623 25.7045 51.6616 26.5164 49.6713 26.5164C47.6811 26.5164 45.8812 25.7045 44.5826 24.3945C44.6822 23.1651 45.7608 22.1885 47.0668 22.1885V22.1893H47.0671Z" fill="white"/>
<path d="M20.3284 43.4828C24.2858 43.4828 27.4954 46.6908 27.4954 50.6482C27.4954 54.6072 24.2858 57.8152 20.3284 57.8152C16.371 57.8152 13.1614 54.6072 13.1614 50.6482C13.1614 46.6908 16.3712 43.4828 20.3284 43.4828Z" fill="#83CF8F"/>
<path d="M25.6542 55.4437C24.3425 56.8995 22.4421 57.8151 20.3284 57.8151C18.2147 57.8151 16.3143 56.8995 15.0026 55.4437C15.2389 54.2859 16.3078 53.4057 17.5816 53.4057H17.7742L18.8998 52.7914L19.0826 52.075C18.8143 51.8042 18.5375 51.3463 18.2856 50.7822C18.2649 50.7855 18.2444 50.7871 18.2229 50.7871C17.9257 50.7871 17.6309 50.4635 17.5642 50.0641C17.5124 49.752 17.616 49.4852 17.8063 49.3848C17.5544 48.1011 17.3872 46.1299 19.5981 45.6423C20.9245 45.3508 21.398 46.3743 21.4557 46.4863C22.2585 46.0359 22.769 46.7111 22.8992 47.0684C23.1364 47.7149 23.0589 48.9162 22.9387 49.4472C23.0721 49.574 23.1371 49.803 23.0935 50.064C23.0284 50.4568 22.7418 50.7763 22.4495 50.787C22.2133 51.3065 21.8962 51.7511 21.5742 52.0747L21.7578 52.7911H21.7734L22.8677 53.4054H23.0761C24.3483 53.4054 25.4178 54.2881 25.6551 55.4434H25.6542V55.4437Z" fill="white"/>
<path d="M49.6716 43.4828C53.6306 43.4828 56.8386 46.6908 56.8386 50.6482C56.8386 54.6072 53.6306 57.8152 49.6716 57.8152C45.7142 57.8152 42.5062 54.6072 42.5062 50.6482C42.5062 46.6908 45.7142 43.4828 49.6716 43.4828Z" fill="#EF8354"/>
<path d="M55.018 55.4215C53.7055 56.8904 51.7977 57.8152 49.6716 57.8152C47.5472 57.8152 45.6385 56.8906 44.3268 55.4215C44.6051 54.3041 45.6567 53.4683 46.9033 53.4683H47.0976L48.2322 52.8491L48.4166 52.1278C48.1466 51.8545 47.8674 51.3933 47.613 50.8251C47.5923 50.8284 47.5718 50.83 47.5496 50.83C47.2507 50.83 46.9526 50.504 46.8859 50.1013C46.8341 49.7859 46.9386 49.5175 47.1297 49.4162C46.8761 48.1217 46.708 46.1349 48.9363 45.6441C50.2727 45.3501 50.7511 46.3818 50.8087 46.4946C51.6181 46.041 52.1319 46.7219 52.2637 47.0817C52.5025 47.733 52.425 48.9443 52.3032 49.4795C52.4383 49.608 52.5033 49.8377 52.4596 50.1012C52.3937 50.4973 52.1055 50.8192 51.8107 50.8299C51.5727 51.3535 51.2525 51.8024 50.9281 52.1276L51.1125 52.8498H51.1281L52.2314 53.469H52.4414C53.6872 53.469 54.7395 54.3072 55.0179 55.423V55.4215H55.018Z" fill="white"/>
</g>
<defs>
<clipPath id="clip0_775_23">
<rect width="70" height="70" fill="white"/>
</clipPath>
</defs>
</svg>
