<svg width="29" height="29" viewBox="0 0 29 29" fill="none" xmlns="http://www.w3.org/2000/svg">
<path d="M22.4 12.4V9.39999C22.4 8.29542 21.5046 7.39999 20.4 7.39999H8.4C7.29543 7.39999 6.4 8.29542 6.4 9.39999V12.4M22.4 12.4V21.4C22.4 22.5046 21.5046 23.4 20.4 23.4H8.4C7.29543 23.4 6.4 22.5046 6.4 21.4V12.4M22.4 12.4H6.4M10.4 5.39999V9.39999M18.4 5.39999V9.39999" stroke="#BFC0C0" stroke-width="0.552" stroke-linecap="round"/>
<path d="M10.9 14.4H8.9C8.62386 14.4 8.4 14.6239 8.4 14.9V16.9C8.4 17.1761 8.62386 17.4 8.9 17.4H10.9C11.1761 17.4 11.4 17.1761 11.4 16.9V14.9C11.4 14.6239 11.1761 14.4 10.9 14.4Z" fill="#BFC0C0"/>
<path d="M15.4 14.4H13.4C13.1239 14.4 12.9 14.6239 12.9 14.9V16.9C12.9 17.1761 13.1239 17.4 13.4 17.4H15.4C15.6761 17.4 15.9 17.1761 15.9 16.9V14.9C15.9 14.6239 15.6761 14.4 15.4 14.4Z" fill="#BFC0C0"/>
<path d="M19.9 14.4H17.9C17.6239 14.4 17.4 14.6239 17.4 14.9V16.9C17.4 17.1761 17.6239 17.4 17.9 17.4H19.9C20.1761 17.4 20.4 17.1761 20.4 16.9V14.9C20.4 14.6239 20.1761 14.4 19.9 14.4Z" fill="#BFC0C0"/>
</svg>
