<svg width="20" height="20" viewBox="0 0 30 31" fill="none" xmlns="http://www.w3.org/2000/svg">
<g clip-path="url(#clip0_866_47)">
<path d="M27.5625 27.9821C27.5625 28.7321 26.9531 29.3214 26.1562 29.3214H4.54687C3.79687 29.3214 3.14062 28.7321 3.14062 27.9821V9.39284C3.14062 8.64284 3.75 8.05356 4.54687 8.05356H26.1562C26.9062 8.05356 27.5625 8.64284 27.5625 9.39284V27.9821Z" fill="#E1E0A6"/>
<path d="M26.1562 29.8571H4.54687C3.51562 29.8571 2.67188 29 2.67188 27.9821V9.39285C2.67188 8.375 3.51562 7.51785 4.54687 7.51785H26.1562C27.1875 7.51785 28.0312 8.375 28.0312 9.39285V27.9821C28.0312 29 27.1875 29.8571 26.1562 29.8571ZM4.54687 8.58928C4.03125 8.58928 3.60938 8.96428 3.60938 9.39285V27.9821C3.60938 28.4107 4.03125 28.7857 4.54687 28.7857H26.1562C26.6719 28.7857 27.0937 28.4107 27.0937 27.9821V9.39285C27.0937 8.96428 26.6719 8.58928 26.1562 8.58928H4.54687Z" fill="#231C1C"/>
<path d="M29.8594 12.6607C29.8594 13.5714 29.3437 14.3214 28.6875 14.3214L15.3281 7.62499L1.96875 14.3214C1.3125 14.3214 0.796875 13.5714 0.796875 12.6607V10.3036C0.796875 9.39284 1.3125 8.64284 1.96875 8.64284L15.3281 0.928558L28.6875 8.64284C29.3437 8.64284 29.8594 9.39284 29.8594 10.3036V12.6607Z" fill="#6FB0BE"/>
<path d="M28.6875 14.8571C28.6406 14.8571 28.5469 14.8571 28.5 14.8036L15.3281 8.21429L2.15625 14.8036C2.10937 14.8571 2.01563 14.8571 1.96875 14.8571C1.07813 14.8571 0.328125 13.8929 0.328125 12.6607V10.3036C0.328125 9.125 0.984375 8.16072 1.82813 8.10714L15.0938 0.446429C15.2344 0.392857 15.375 0.392857 15.5156 0.446429L28.7813 8.10714C29.625 8.21429 30.2813 9.125 30.2813 10.3036V12.6607C30.3281 13.8393 29.625 14.8571 28.6875 14.8571ZM15.3281 1.51786L2.20312 9.125C2.15625 9.17857 2.0625 9.17857 2.01563 9.17857C1.64063 9.17857 1.3125 9.71429 1.3125 10.3036V12.6607C1.3125 13.25 1.59375 13.7321 1.92188 13.7857L15.1875 7.14286C15.3281 7.08929 15.4219 7.08929 15.5625 7.14286L28.8281 13.7857C29.1562 13.7321 29.4375 13.25 29.4375 12.6607V10.3036C29.4375 9.66072 29.1094 9.17857 28.7344 9.17857C28.6406 9.17857 28.5938 9.17857 28.5 9.125L15.3281 1.51786Z" fill="#231C1C"/>
<path d="M19.0781 29.375H12.5625V20.4286C12.5625 19.6786 13.125 19.1429 13.7812 19.1429H17.8594C18.5156 19.1429 19.0781 19.6786 19.0781 20.4286V29.375Z" fill="#FDE8C2"/>
<path d="M19.0781 29.9107H12.5625C12.2812 29.9107 12.0938 29.6964 12.0938 29.375V20.4286C12.0938 19.4107 12.7969 18.6071 13.7812 18.6071H17.8594C18.7969 18.6071 19.5469 19.3571 19.5469 20.4286V29.3214C19.5469 29.6429 19.3594 29.9107 19.0781 29.9107ZM13.0312 28.8393H18.6094V20.4286C18.6094 19.9464 18.2344 19.6786 17.8594 19.6786H13.7812C13.4062 19.6786 13.0312 19.8929 13.0312 20.4286V28.8393Z" fill="#231C1C"/>
</g>
<defs>
<clipPath id="clip0_866_47">
<rect width="30" height="31" fill="white"/>
</clipPath>
</defs>
</svg>
