<svg width="30" height="30" viewBox="0 0 30 30" fill="none" xmlns="http://www.w3.org/2000/svg">
<g clip-path="url(#clip0_731_53)">
<path d="M19.9983 15C19.9983 12.2387 17.7604 9.9996 14.9991 9.9996C12.2378 9.9996 9.9987 12.2387 9.9987 15C9.9987 17.7613 12.2378 20.0004 14.9991 20.0004C17.7604 20.0004 19.9983 17.7613 19.9983 15ZM22.7014 15C22.7014 19.254 19.2531 22.7023 14.9991 22.7023C10.7451 22.7023 7.29678 19.254 7.29678 15C7.29678 10.746 10.7451 7.29768 14.9991 7.29768C19.2531 7.29768 22.7014 10.746 22.7014 15ZM8.79186 6.99228C8.792 7.34829 8.68657 7.69634 8.4889 7.99243C8.29124 8.28852 8.01021 8.51934 7.68135 8.65571C7.3525 8.79208 6.9906 8.82787 6.6414 8.75855C6.29221 8.68924 5.97141 8.51793 5.71958 8.2663C5.46774 8.01467 5.29618 7.69401 5.22659 7.34487C5.15699 6.99573 5.1925 6.6338 5.3286 6.30483C5.46471 5.97587 5.6953 5.69466 5.99123 5.49675C6.28716 5.29885 6.63513 5.19314 6.99114 5.193H6.99186C7.46906 5.19322 7.92665 5.38284 8.26415 5.7202C8.60165 6.05756 8.79145 6.51508 8.79186 6.99228ZM21.0591 27.2096C22.5215 27.143 23.3164 26.8994 23.8447 26.6936C24.545 26.421 25.0447 26.0963 25.57 25.5716C26.0954 25.047 26.4206 24.5478 26.692 23.8475C26.8979 23.3195 27.1415 22.5244 27.208 21.0619C27.2807 19.4808 27.2953 19.0058 27.2953 15.0001C27.2953 10.9944 27.2795 10.5208 27.208 8.93832C27.1414 7.47588 26.896 6.68232 26.692 6.15276C26.4194 5.45244 26.0947 4.95276 25.57 4.4274C25.0454 3.90204 24.5462 3.57684 23.8447 3.3054C23.3167 3.09948 22.5215 2.85588 21.0591 2.7894C19.478 2.71668 19.003 2.70216 14.9991 2.70216C10.9952 2.70216 10.5197 2.71788 8.9373 2.7894C7.47486 2.856 6.6813 3.1014 6.15174 3.3054C5.45142 3.57684 4.95174 3.90276 4.42638 4.4274C3.90102 4.95204 3.57702 5.45244 3.30438 6.15276C3.09846 6.68076 2.85486 7.47588 2.78838 8.93832C2.71566 10.5208 2.70114 10.9944 2.70114 15.0001C2.70114 19.0058 2.71566 19.4795 2.78838 21.0619C2.85498 22.5244 3.09978 23.3192 3.30438 23.8475C3.57702 24.5478 3.90174 25.0475 4.42638 25.5716C4.95102 26.0958 5.45142 26.421 6.15174 26.6936C6.67974 26.8996 7.47486 27.1432 8.9373 27.2096C10.5184 27.2824 10.9934 27.2969 14.9991 27.2969C19.0048 27.2969 19.4785 27.2824 21.0591 27.2096ZM21.1833 0.09084C22.7801 0.16356 23.8713 0.41676 24.8242 0.78756C25.8111 1.17048 26.6465 1.6842 27.4814 2.51772C28.3162 3.35124 28.8286 4.188 29.2115 5.17488C29.5823 6.1284 29.8355 7.21896 29.9083 8.8158C29.9822 10.4152 29.9991 10.9265 29.9991 15C29.9991 19.0735 29.9822 19.5848 29.9083 21.1842C29.8355 22.7812 29.5823 23.8716 29.2115 24.8251C28.8286 25.8114 28.3161 26.6491 27.4814 27.4823C26.6467 28.3154 25.8111 28.8284 24.8242 29.2124C23.8695 29.5832 22.7801 29.8364 21.1833 29.9092C19.5831 29.9819 19.0726 30 14.9991 30C10.9256 30 10.4143 29.9831 8.8149 29.9092C7.21794 29.8364 6.1275 29.5832 5.17398 29.2124C4.1877 28.8284 3.35166 28.3158 2.51682 27.4823C1.68198 26.6488 1.17066 25.8114 0.786657 24.8251C0.415857 23.8716 0.161461 22.781 0.089941 21.1842C0.0172195 19.5836 0.000301361 19.0735 0.000301361 15C0.000301361 10.9265 0.0172195 10.4152 0.089941 8.8158C0.162661 7.21884 0.415857 6.1278 0.786657 5.17488C1.17066 4.1886 1.6833 3.35256 2.51682 2.51772C3.35034 1.68288 4.1877 1.17048 5.17278 0.78756C6.1275 0.41676 7.21806 0.16236 8.8137 0.09084C10.4131 0.01812 10.9244 0 14.9979 0C19.0714 0 19.5831 0.01692 21.1833 0.09084Z" fill="url(#paint0_radial_731_53)"/>
<path d="M19.9983 15C19.9983 12.2387 17.7604 9.9996 14.9991 9.9996C12.2378 9.9996 9.9987 12.2387 9.9987 15C9.9987 17.7613 12.2378 20.0004 14.9991 20.0004C17.7604 20.0004 19.9983 17.7613 19.9983 15ZM22.7014 15C22.7014 19.254 19.2531 22.7023 14.9991 22.7023C10.7451 22.7023 7.29678 19.254 7.29678 15C7.29678 10.746 10.7451 7.29768 14.9991 7.29768C19.2531 7.29768 22.7014 10.746 22.7014 15ZM8.79186 6.99228C8.792 7.34829 8.68657 7.69634 8.4889 7.99243C8.29124 8.28852 8.01021 8.51934 7.68135 8.65571C7.3525 8.79208 6.9906 8.82787 6.6414 8.75855C6.29221 8.68924 5.97141 8.51793 5.71958 8.2663C5.46774 8.01467 5.29618 7.69401 5.22659 7.34487C5.15699 6.99573 5.1925 6.6338 5.3286 6.30483C5.46471 5.97587 5.6953 5.69466 5.99123 5.49675C6.28716 5.29885 6.63513 5.19314 6.99114 5.193H6.99186C7.46906 5.19322 7.92665 5.38284 8.26415 5.7202C8.60165 6.05756 8.79145 6.51508 8.79186 6.99228ZM21.0591 27.2096C22.5215 27.143 23.3164 26.8994 23.8447 26.6936C24.545 26.421 25.0447 26.0963 25.57 25.5716C26.0954 25.047 26.4206 24.5478 26.692 23.8475C26.8979 23.3195 27.1415 22.5244 27.208 21.0619C27.2807 19.4808 27.2953 19.0058 27.2953 15.0001C27.2953 10.9944 27.2795 10.5208 27.208 8.93832C27.1414 7.47588 26.896 6.68232 26.692 6.15276C26.4194 5.45244 26.0947 4.95276 25.57 4.4274C25.0454 3.90204 24.5462 3.57684 23.8447 3.3054C23.3167 3.09948 22.5215 2.85588 21.0591 2.7894C19.478 2.71668 19.003 2.70216 14.9991 2.70216C10.9952 2.70216 10.5197 2.71788 8.9373 2.7894C7.47486 2.856 6.6813 3.1014 6.15174 3.3054C5.45142 3.57684 4.95174 3.90276 4.42638 4.4274C3.90102 4.95204 3.57702 5.45244 3.30438 6.15276C3.09846 6.68076 2.85486 7.47588 2.78838 8.93832C2.71566 10.5208 2.70114 10.9944 2.70114 15.0001C2.70114 19.0058 2.71566 19.4795 2.78838 21.0619C2.85498 22.5244 3.09978 23.3192 3.30438 23.8475C3.57702 24.5478 3.90174 25.0475 4.42638 25.5716C4.95102 26.0958 5.45142 26.421 6.15174 26.6936C6.67974 26.8996 7.47486 27.1432 8.9373 27.2096C10.5184 27.2824 10.9934 27.2969 14.9991 27.2969C19.0048 27.2969 19.4785 27.2824 21.0591 27.2096ZM21.1833 0.09084C22.7801 0.16356 23.8713 0.41676 24.8242 0.78756C25.8111 1.17048 26.6465 1.6842 27.4814 2.51772C28.3162 3.35124 28.8286 4.188 29.2115 5.17488C29.5823 6.1284 29.8355 7.21896 29.9083 8.8158C29.9822 10.4152 29.9991 10.9265 29.9991 15C29.9991 19.0735 29.9822 19.5848 29.9083 21.1842C29.8355 22.7812 29.5823 23.8716 29.2115 24.8251C28.8286 25.8114 28.3161 26.6491 27.4814 27.4823C26.6467 28.3154 25.8111 28.8284 24.8242 29.2124C23.8695 29.5832 22.7801 29.8364 21.1833 29.9092C19.5831 29.9819 19.0726 30 14.9991 30C10.9256 30 10.4143 29.9831 8.8149 29.9092C7.21794 29.8364 6.1275 29.5832 5.17398 29.2124C4.1877 28.8284 3.35166 28.3158 2.51682 27.4823C1.68198 26.6488 1.17066 25.8114 0.786657 24.8251C0.415857 23.8716 0.161461 22.781 0.089941 21.1842C0.0172195 19.5836 0.000301361 19.0735 0.000301361 15C0.000301361 10.9265 0.0172195 10.4152 0.089941 8.8158C0.162661 7.21884 0.415857 6.1278 0.786657 5.17488C1.17066 4.1886 1.6833 3.35256 2.51682 2.51772C3.35034 1.68288 4.1877 1.17048 5.17278 0.78756C6.1275 0.41676 7.21806 0.16236 8.8137 0.09084C10.4131 0.01812 10.9244 0 14.9979 0C19.0714 0 19.5831 0.01692 21.1833 0.09084Z" fill="url(#paint1_radial_731_53)"/>
</g>
<defs>
<radialGradient id="paint0_radial_731_53" cx="0" cy="0" r="1" gradientUnits="userSpaceOnUse" gradientTransform="translate(26.0134 30.1417) rotate(180) scale(39.1625 39.1625)">
<stop offset="0.09" stop-color="#4F5D75"/>
<stop offset="0.78" stop-color="#4F5D75"/>
</radialGradient>
<radialGradient id="paint1_radial_731_53" cx="0" cy="0" r="1" gradientUnits="userSpaceOnUse" gradientTransform="translate(11.8054 31.4857) rotate(180) scale(30.8654)">
<stop offset="0.64" stop-color="#4F5D75" stop-opacity="0"/>
<stop offset="1" stop-color="#4F5D75"/>
</radialGradient>
<clipPath id="clip0_731_53">
<rect width="30" height="30" fill="white" transform="matrix(-1 0 0 1 30 0)"/>
</clipPath>
</defs>
</svg>
