<svg width="30" height="30" viewBox="0 0 30 30" fill="none" xmlns="http://www.w3.org/2000/svg">
<g clip-path="url(#clip0_724_2)">
<path d="M0 0H30V30H0V0Z" fill="#F0DB4F"/>
<path d="M27.5447 22.8451C27.3251 21.4763 26.4325 20.327 23.789 19.2548C22.8707 18.8327 21.847 18.5305 21.5418 17.8346C21.4335 17.4297 21.4192 17.2015 21.4876 16.9563C21.6844 16.1607 22.634 15.9126 23.3869 16.1407C23.8717 16.3032 24.3308 16.6769 24.6074 17.2728C25.9021 16.4345 25.8992 16.4401 26.8032 15.8641C26.4724 15.3508 26.2956 15.1141 26.0789 14.8945C25.3004 14.0248 24.2395 13.577 22.5428 13.6113C22.249 13.6483 21.9525 13.6882 21.6587 13.7253C20.8118 13.9392 20.0048 14.3841 19.5314 14.9801C18.1112 16.5913 18.5162 19.4116 20.2443 20.5723C21.9468 21.8499 24.4477 22.1407 24.7671 23.3356C25.0779 24.7985 23.692 25.2719 22.3146 25.1037C21.2994 24.8926 20.7348 24.3765 20.1245 23.4383C19.001 24.0884 19.001 24.0884 17.846 24.7529C18.1198 25.3518 18.4078 25.6227 18.8669 26.1417C21.04 28.3461 26.4781 28.2377 27.4534 24.9012C27.4933 24.7871 27.7557 24.0228 27.5447 22.8451ZM16.3089 13.788H13.5028C13.5028 16.212 13.4915 18.6188 13.4915 21.0428C13.4915 22.5856 13.5713 24 13.3204 24.4335C12.9097 25.2861 11.846 25.1806 11.3612 25.0152C10.8679 24.7728 10.6169 24.4277 10.3261 23.9401C10.2462 23.8004 10.1863 23.692 10.1663 23.6835C9.40497 24.1483 8.64639 24.616 7.88498 25.0808C8.26429 25.8593 8.82319 26.5352 9.53897 26.9743C10.6084 27.616 12.0456 27.8127 13.5485 27.4677C14.5266 27.1825 15.3707 26.5922 15.8127 25.6939C16.4515 24.5162 16.3146 23.0903 16.3089 21.5133C16.3232 18.9411 16.3089 16.3688 16.3089 13.788Z" fill="#323330"/>
</g>
<defs>
<clipPath id="clip0_724_2">
<rect width="30" height="30" fill="white"/>
</clipPath>
</defs>
</svg>
