<svg width="30" height="30" viewBox="0 0 30 30" fill="none" xmlns="http://www.w3.org/2000/svg">
<g clip-path="url(#clip0_731_46)">
<path d="M0 2.20039C0 1.01896 0.993047 0.0599976 2.21719 0.0599976H27.7828C29.0074 0.0599976 30 1.01896 30 2.20039V27.8C30 28.9817 29.0074 29.94 27.7828 29.94H2.21719C0.993164 29.94 0 28.9819 0 27.8003V2.20004V2.20039Z" fill="#4F5D75"/>
<path d="M9.11671 25.0656V11.6135H4.62749V25.0656H9.11718H9.11671ZM6.87304 9.77717C8.4382 9.77717 9.41261 8.74421 9.41261 7.4533C9.38331 6.13298 8.4382 5.12885 6.90281 5.12885C5.36636 5.12885 4.36288 6.13298 4.36288 7.45318C4.36288 8.74409 5.33695 9.77705 6.84363 9.77705H6.87269L6.87304 9.77717ZM11.6016 25.0656H16.0904V17.5541C16.0904 17.1526 16.1197 16.7501 16.2383 16.4633C16.5627 15.6597 17.3013 14.8278 18.5418 14.8278C20.1657 14.8278 20.8158 16.0613 20.8158 17.8699V25.0656H25.3045V17.3526C25.3045 13.2208 23.0902 11.2981 20.1367 11.2981C17.7152 11.2981 16.6518 12.6461 16.0609 13.5642H16.0908V11.614H11.6018C11.6604 12.8759 11.6014 25.066 11.6014 25.066L11.6016 25.0656Z" fill="white"/>
</g>
<defs>
<clipPath id="clip0_731_46">
<rect width="30" height="30" fill="white"/>
</clipPath>
</defs>
</svg>
