<svg width="30" height="30" viewBox="0 0 30 30" fill="none" xmlns="http://www.w3.org/2000/svg">
<g clip-path="url(#clip0_725_31)">
<path d="M13.6498 0.38085C14.4655 -0.043086 15.5279 -0.0450009 16.3429 0.38085C20.443 2.48447 24.5444 4.58479 28.6437 6.68968C29.4148 7.08404 29.9305 7.86319 29.9227 8.66989V21.3261C29.9284 22.1662 29.3617 22.9639 28.5482 23.3494C24.4616 25.4414 20.3771 27.536 16.2912 29.628C15.4587 30.0602 14.3749 30.0269 13.5684 29.5593C12.3432 28.9144 11.116 28.2727 9.89069 27.6284C9.64031 27.4929 9.35807 27.385 9.18127 27.1646C9.33756 26.9733 9.617 26.9495 9.84406 26.866C10.3555 26.7183 10.8252 26.4813 11.295 26.2513C11.4138 26.1774 11.5588 26.2057 11.6727 26.2718C12.7204 26.8172 13.7588 27.3785 14.81 27.9187C15.0342 28.0363 15.2613 27.8802 15.4529 27.7832C19.4632 25.7252 23.4783 23.675 27.4878 21.6164C27.6364 21.5515 27.7185 21.4083 27.7064 21.2605C27.7092 17.0855 27.7071 12.9098 27.7078 8.73479C27.7248 8.56713 27.618 8.41298 27.451 8.34436C23.3786 6.26191 19.3083 4.17628 15.2365 2.0933C15.166 2.04926 15.0824 2.02563 14.9968 2.02552C14.9112 2.0254 14.8276 2.04881 14.7569 2.09266C10.6852 4.17628 6.61554 6.26383 2.54382 8.34617C2.37745 8.41489 2.26579 8.56649 2.28559 8.73479C2.28629 12.9098 2.28559 17.0855 2.28559 21.2612C2.27853 21.3333 2.29597 21.4056 2.33556 21.4684C2.37515 21.5312 2.43499 21.5815 2.50703 21.6126C3.59359 22.172 4.68155 22.7276 5.76881 23.2851C6.38134 23.5845 7.1334 23.7623 7.80825 23.533C8.40378 23.339 8.82123 22.7872 8.80987 22.2131C8.81549 18.0624 8.80706 13.9112 8.81409 9.76117C8.79921 9.57691 8.9917 9.42468 9.189 9.44202C9.71108 9.43883 10.2339 9.43564 10.7559 9.4433C10.9738 9.43883 11.1238 9.63723 11.0969 9.82287C11.0948 13.9998 11.1025 18.1768 11.0934 22.3537C11.0948 23.4669 10.5911 24.6782 9.45707 25.2229C8.06003 25.88 6.3333 25.7406 4.95313 25.1105C3.75832 24.569 2.6181 23.93 1.44449 23.3499C0.628924 22.9666 0.0650234 22.1656 0.0707643 21.3262V8.66989C0.0622115 7.84649 0.598461 7.05319 1.39352 6.66457C5.47942 4.57085 9.56462 2.47553 13.6498 0.38085Z" fill="#8CC84B"/>
<path d="M17.2144 9.14787C18.9964 9.04372 20.9041 9.08616 22.5077 9.88329C23.7493 10.4941 24.4376 11.7762 24.4595 13.0286C24.4249 13.1975 24.2304 13.2907 24.0527 13.2791C23.5357 13.2785 23.0186 13.2855 22.5015 13.276C22.2822 13.2836 22.1547 13.1 22.1272 12.9239C21.9786 12.3247 21.6187 11.7312 20.9975 11.4421C20.0439 11.0086 18.9383 11.0304 17.8985 11.0395C17.1394 11.0761 16.3231 11.1357 15.68 11.5411C15.1863 11.8481 15.0363 12.4679 15.2125 12.967C15.3787 13.3254 15.8343 13.4411 16.2071 13.5477C18.3547 14.0577 20.6304 14.0069 22.737 14.6781C23.6092 14.9517 24.4623 15.4836 24.7609 16.3128C25.1514 17.424 24.9802 18.7523 24.1095 19.6445C23.4033 20.3786 22.3749 20.7782 21.3491 20.9952C19.9845 21.2715 18.5684 21.2785 17.1826 21.1558C15.8795 21.021 14.5235 20.7101 13.5176 19.9039C12.6573 19.2257 12.2372 18.169 12.2789 17.1491C12.2889 16.9769 12.4777 16.8568 12.6595 16.871C13.1801 16.8671 13.7008 16.8658 14.2215 16.8716C14.4294 16.8581 14.5836 17.0213 14.5943 17.1992C14.6903 17.7702 14.9267 18.3695 15.475 18.708C16.5332 19.3279 17.861 19.2854 19.0727 19.3028C20.0765 19.2623 21.2034 19.2501 22.0226 18.6477C22.4548 18.304 22.5828 17.7291 22.466 17.2346C22.3395 16.817 21.8584 16.6224 21.4453 16.4952C19.3253 15.8863 17.0241 16.1072 14.9245 15.4186C14.0722 15.1451 13.248 14.628 12.9205 13.8329C12.4636 12.7075 12.6729 11.3156 13.6349 10.4536C14.5729 9.59616 15.927 9.26606 17.2144 9.14787Z" fill="#8CC84B"/>
</g>
<defs>
<clipPath id="clip0_725_31">
<rect width="30" height="30" fill="white"/>
</clipPath>
</defs>
</svg>
