<svg width="20" height="20" viewBox="0 0 30 30" fill="none" xmlns="http://www.w3.org/2000/svg">
<g clip-path="url(#clip0_865_14)">
<path d="M26.8182 16.2396C26.0651 16.2396 25.4545 16.8502 25.4545 17.6033H4.54548C4.54548 16.8502 3.93493 16.2396 3.18183 16.2396C2.42872 16.2396 1.81818 16.8502 1.81818 17.6033V28.1818C1.81818 28.9349 2.42872 29.5455 3.18183 29.5455H26.8182C27.5713 29.5455 28.1818 28.9349 28.1818 28.1818V17.6033C28.1818 16.8502 27.5713 16.2396 26.8182 16.2396Z" fill="#AA3827"/>
<path d="M20.4546 8.63637H9.54548C8.79237 8.63637 8.18182 8.02582 8.18182 7.27272V1.81817C8.18182 1.06506 8.79237 0.454514 9.54548 0.454514H20.4546C21.2077 0.454514 21.8182 1.06506 21.8182 1.81817V7.27272C21.8182 8.02582 21.2077 8.63637 20.4546 8.63637ZM10.9091 5.90906H19.0909V3.18182H10.9091V5.90906Z" fill="#AA3827"/>
<path d="M20.4546 0.454575H15V3.18182H19.0909V5.90907H15V8.63631H20.4546C21.2077 8.63631 21.8182 8.02577 21.8182 7.27266V1.81817C21.8182 1.06512 21.2077 0.454575 20.4546 0.454575Z" fill="#672415"/>
<path d="M26.8182 16.2396C26.0651 16.2396 25.4545 16.8502 25.4545 17.6033H15V29.5454H26.8182C27.5713 29.5454 28.1818 28.9349 28.1818 28.1818V17.6033C28.1818 16.8502 27.5713 16.2396 26.8182 16.2396Z" fill="#672415"/>
<path d="M28.6363 5.90906H1.36365C0.610547 5.90906 0 6.5196 0 7.27271V17.2727C0 17.9318 0.471387 18.4965 1.11961 18.6144L11.1196 20.4325C11.8608 20.5673 12.5705 20.0758 12.7052 19.3349C12.7201 19.2529 12.7261 19.1714 12.7263 19.0909H17.2736C17.2737 19.1715 17.2797 19.2528 17.2947 19.3349C17.4144 19.9934 17.9883 20.4548 18.6347 20.4548C18.7157 20.4548 18.7978 20.4475 18.8803 20.4325L28.8803 18.6144C29.5286 18.4965 30 17.9318 30 17.2727V7.27271C30 6.5196 29.3895 5.90906 28.6363 5.90906Z" fill="#B66D38"/>
<path d="M28.6363 5.90906H15V19.0909H17.2737C17.2738 19.1715 17.2798 19.2528 17.2948 19.3349C17.4145 19.9934 17.9885 20.4548 18.6348 20.4548C18.7158 20.4548 18.7979 20.4475 18.8804 20.4325L28.8804 18.6144C29.5286 18.4965 30 17.9318 30 17.2727V7.27271C30 6.5196 29.3895 5.90906 28.6363 5.90906Z" fill="#AA3827"/>
<path d="M18.6364 15H11.3636C10.6105 15 9.99997 15.6105 9.99997 16.3637V21.8182C9.99997 22.5713 10.6105 23.1819 11.3636 23.1819H18.6363C19.3894 23.1819 20 22.5713 20 21.8182V16.3637C20 15.6105 19.3894 15 18.6364 15Z" fill="#F4D371"/>
<path d="M18.6364 23.1818C19.3895 23.1818 20 22.5712 20 21.8181V16.3636C20 15.6105 19.3895 14.9999 18.6364 14.9999H15V23.1817L18.6364 23.1818Z" fill="#E9A35F"/>
</g>
<defs>
<clipPath id="clip0_865_14">
<rect width="30" height="30" fill="white"/>
</clipPath>
</defs>
</svg>
