<svg width="25" height="27" viewBox="0 0 25 27" fill="none" xmlns="http://www.w3.org/2000/svg">
<path d="M25 13.5024C25 11.9327 22.926 10.4451 19.7462 9.52263C20.48 6.45085 20.1539 4.00695 18.7169 3.22452C18.3857 3.04099 17.9984 2.95405 17.5754 2.95405V4.0311C17.8098 4.0311 17.9984 4.07457 18.1563 4.15668C18.8494 4.53341 19.15 5.96787 18.9156 7.81287C18.8596 8.26687 18.7678 8.74503 18.6557 9.23284C17.6569 9.00101 16.5664 8.8223 15.4199 8.70639C14.732 7.81287 14.0185 7.00145 13.3 6.29147C14.9613 4.82803 16.5206 4.02627 17.5805 4.02627V2.94922C16.1792 2.94922 14.3447 3.89587 12.4898 5.53801C10.6349 3.90553 8.80045 2.96854 7.3991 2.96854V4.04559C8.45393 4.04559 10.0183 4.84252 11.6796 6.2963C10.9662 7.00629 10.2528 7.81287 9.57501 8.70639C8.42336 8.8223 7.33286 9.00101 6.33408 9.23767C6.21688 8.75469 6.13025 8.28619 6.0691 7.83702C5.8296 5.99202 6.12515 4.55756 6.81309 4.176C6.96596 4.08906 7.1647 4.05042 7.3991 4.05042V2.97337C6.97106 2.97337 6.58377 3.06031 6.24745 3.24384C4.81553 4.02627 4.4945 6.46534 5.23339 9.52746C2.0638 10.4548 0 11.9376 0 13.5024C0 15.0721 2.07399 16.5597 5.25377 17.4822C4.51998 20.554 4.84611 22.9979 6.28312 23.7803C6.61435 23.9639 7.00163 24.0508 7.42968 24.0508C8.83102 24.0508 10.6655 23.1041 12.5204 21.462C14.3753 23.0945 16.2097 24.0315 17.6111 24.0315C18.0391 24.0315 18.4264 23.9445 18.7627 23.761C20.1947 22.9786 20.5157 20.5395 19.7768 17.4774C22.9362 16.5549 25 15.0673 25 13.5024ZM18.3653 10.2809C18.1767 10.904 17.9423 11.5463 17.6773 12.1887C17.4684 11.8023 17.2493 11.4159 17.0098 11.0295C16.7754 10.6432 16.5257 10.2664 16.276 9.89936C16.9996 10.0008 17.6977 10.1264 18.3653 10.2809ZM16.0314 15.4247C15.6339 16.0767 15.2263 16.6949 14.8033 17.2697C14.044 17.3325 13.2746 17.3663 12.5 17.3663C11.7305 17.3663 10.9611 17.3325 10.2069 17.2745C9.78394 16.6998 9.37118 16.0864 8.97371 15.4392C8.58642 14.8065 8.23481 14.1641 7.91378 13.5169C8.22972 12.8697 8.58643 12.2225 8.96861 11.5898C9.36608 10.9378 9.77375 10.3196 10.1967 9.7448C10.956 9.68202 11.7254 9.64821 12.5 9.64821C13.2695 9.64821 14.0389 9.68202 14.7931 9.73997C15.2161 10.3147 15.6288 10.9281 16.0263 11.5753C16.4136 12.208 16.7652 12.8504 17.0862 13.4976C16.7652 14.1448 16.4136 14.792 16.0314 15.4247ZM17.6773 14.7968C17.9525 15.444 18.1869 16.0912 18.3806 16.7191C17.713 16.8736 17.0098 17.0041 16.2811 17.1055C16.5308 16.7336 16.7805 16.352 17.0149 15.9608C17.2493 15.5744 17.4684 15.1832 17.6773 14.7968ZM12.5102 19.9503C12.0363 19.4866 11.5624 18.9698 11.0936 18.4047C11.5522 18.424 12.021 18.4385 12.4949 18.4385C12.9739 18.4385 13.4478 18.4289 13.9115 18.4047C13.4529 18.9698 12.979 19.4866 12.5102 19.9503ZM8.71891 17.1055C7.99531 17.0041 7.29719 16.8785 6.62964 16.7239C6.81818 16.1009 7.05259 15.4585 7.31757 14.8161C7.5265 15.2025 7.74562 15.5889 7.98512 15.9753C8.22462 16.3617 8.46922 16.7384 8.71891 17.1055ZM12.4847 7.05458C12.9586 7.51825 13.4325 8.03504 13.9013 8.60013C13.4427 8.58081 12.9739 8.56632 12.5 8.56632C12.021 8.56632 11.5471 8.57598 11.0834 8.60013C11.542 8.03504 12.0159 7.51825 12.4847 7.05458ZM8.71382 9.89936C8.46413 10.2713 8.21443 10.6528 7.98002 11.044C7.74562 11.4304 7.5265 11.8168 7.31757 12.2032C7.0424 11.556 6.80799 10.9088 6.61435 10.2809C7.2819 10.1312 7.98512 10.0008 8.71382 9.89936ZM4.10212 15.9463C2.29821 15.217 1.13127 14.2607 1.13127 13.5024C1.13127 12.7441 2.29821 11.783 4.10212 11.0585C4.54036 10.8798 5.01936 10.7204 5.51366 10.5707C5.80412 11.5174 6.1863 12.5026 6.66021 13.5121C6.1914 14.5167 5.81431 15.4971 5.52894 16.439C5.02446 16.2892 4.54546 16.125 4.10212 15.9463ZM6.84366 22.8482C6.15063 22.4714 5.84998 21.037 6.08439 19.192C6.14044 18.738 6.23217 18.2598 6.34427 17.772C7.34305 18.0038 8.43355 18.1825 9.58011 18.2985C10.268 19.192 10.9815 20.0034 11.7 20.7134C10.0387 22.1768 8.47941 22.9786 7.41949 22.9786C7.19018 22.9737 6.99654 22.9303 6.84366 22.8482ZM18.9309 19.1678C19.1704 21.0128 18.8748 22.4473 18.1869 22.8288C18.034 22.9158 17.8353 22.9544 17.6009 22.9544C16.5461 22.9544 14.9817 22.1575 13.3204 20.7037C14.0338 19.9937 14.7472 19.1871 15.425 18.2936C16.5766 18.1777 17.6671 17.999 18.6659 17.7623C18.7831 18.2502 18.8748 18.7186 18.9309 19.1678ZM20.8928 15.9463C20.4545 16.125 19.9755 16.2844 19.4812 16.4341C19.1908 15.4875 18.8086 14.5022 18.3347 13.4928C18.8035 12.4882 19.1806 11.5077 19.466 10.5659C19.9704 10.7156 20.4494 10.8798 20.8979 11.0585C22.7018 11.7878 23.8687 12.7441 23.8687 13.5024C23.8636 14.2607 22.6967 15.2218 20.8928 15.9463Z" fill="#61DAFB"/>
<path d="M12.4949 15.7097C13.7811 15.7097 14.8237 14.7215 14.8237 13.5024C14.8237 12.2834 13.7811 11.2952 12.4949 11.2952C11.2088 11.2952 10.1661 12.2834 10.1661 13.5024C10.1661 14.7215 11.2088 15.7097 12.4949 15.7097Z" fill="#61DAFB"/>
</svg>
