<svg width="30" height="25" viewBox="0 0 30 25" fill="none" xmlns="http://www.w3.org/2000/svg">
<path d="M24.8156 11.4172C24.8156 10.0546 23.1733 8.76319 20.6553 7.96237C21.2364 5.29571 20.9781 3.17413 19.8401 2.49488C19.5778 2.33555 19.2712 2.26008 18.9363 2.26008V3.19509C19.1219 3.19509 19.2712 3.23283 19.3963 3.3041C19.9451 3.63114 20.1832 4.87643 19.9975 6.47809C19.9532 6.87222 19.8806 7.28731 19.7918 7.71079C19.0008 7.50953 18.1373 7.3544 17.2294 7.25377C16.6847 6.47809 16.1197 5.77369 15.5507 5.15735C16.8662 3.88691 18.101 3.19089 18.9404 3.19089V2.25589C17.8306 2.25589 16.378 3.07769 14.9092 4.50326C13.4403 3.08607 11.9877 2.27266 10.878 2.27266V3.20767C11.7133 3.20767 12.9521 3.89949 14.2676 5.16154C13.7026 5.77789 13.1377 6.47809 12.601 7.25377C11.689 7.3544 10.8255 7.50953 10.0346 7.71498C9.94179 7.2957 9.87322 6.88899 9.82476 6.49906C9.63519 4.89739 9.86916 3.65211 10.414 3.32088C10.535 3.2454 10.6923 3.21187 10.878 3.21187V2.27685C10.539 2.27685 10.2323 2.35233 9.96606 2.51166C8.83213 3.19089 8.57795 5.30828 9.16301 7.96656C6.65313 8.77159 5.01888 10.0588 5.01888 11.4172C5.01888 12.78 6.6612 14.0714 9.17916 14.8722C8.59807 17.5389 8.85631 19.6604 9.99431 20.3396C10.2566 20.4989 10.5632 20.5744 10.9022 20.5744C12.0119 20.5744 13.4646 19.7526 14.9334 18.3271C16.4022 19.7443 17.8549 20.5577 18.9645 20.5577C19.3034 20.5577 19.6101 20.4823 19.8765 20.3229C21.0103 19.6436 21.2646 17.5262 20.6795 14.868C23.1813 14.0672 24.8156 12.7758 24.8156 11.4172ZM19.5618 8.62064C19.4124 9.16156 19.2268 9.71912 19.017 10.2768C18.8516 9.94142 18.6781 9.60596 18.4884 9.2705C18.3028 8.93511 18.105 8.60807 17.9073 8.28941C18.4803 8.37745 19.0331 8.48647 19.5618 8.62064ZM17.7136 13.086C17.3988 13.6521 17.0761 14.1888 16.7412 14.6877C16.1399 14.7422 15.5306 14.7716 14.9172 14.7716C14.3079 14.7716 13.6986 14.7422 13.1014 14.6919C12.7665 14.1929 12.4396 13.6605 12.1248 13.0986C11.8181 12.5493 11.5398 11.9917 11.2855 11.4299C11.5357 10.868 11.8181 10.3061 12.1209 9.75691C12.4356 9.1909 12.7584 8.65418 13.0933 8.15523C13.6946 8.10072 14.3038 8.07138 14.9172 8.07138C15.5266 8.07138 16.1359 8.10072 16.733 8.15104C17.068 8.64999 17.3949 9.18246 17.7096 9.74434C18.0163 10.2936 18.2947 10.8512 18.5489 11.4131C18.2947 11.9749 18.0163 12.5368 17.7136 13.086ZM19.017 12.541C19.2288 13.0874 19.4146 13.6443 19.5739 14.2097C19.0452 14.3438 18.4884 14.4571 17.9114 14.5451C18.1091 14.2223 18.3068 13.8911 18.4924 13.5514C18.6781 13.216 18.8516 12.8764 19.017 12.541ZM14.9253 17.0148C14.55 16.6122 14.1747 16.1636 13.8035 15.673C14.1667 15.6898 14.5379 15.7024 14.9132 15.7024C15.2925 15.7024 15.6678 15.694 16.035 15.673C15.6886 16.1407 15.3182 16.5886 14.9253 17.0148ZM11.9231 14.5451C11.3501 14.4571 10.7973 14.3481 10.2687 14.2139C10.4179 13.673 10.6036 13.1154 10.8134 12.5577C10.9789 12.8931 11.1524 13.2286 11.342 13.564C11.5317 13.8994 11.7254 14.2265 11.9231 14.5451ZM14.9051 5.81982C15.2804 6.22232 15.6557 6.67097 16.0269 7.16153C15.6637 7.14475 15.2925 7.13218 14.9172 7.13218C14.5379 7.13218 14.1626 7.14056 13.7955 7.16153C14.1418 6.69384 14.5122 6.24595 14.9051 5.81982ZM11.919 8.28941C11.7213 8.61226 11.5236 8.94349 11.338 9.28306C11.1524 9.61852 10.9789 9.95398 10.8134 10.2894C10.6016 9.74294 10.4158 9.18603 10.2566 8.62064C10.7852 8.49066 11.342 8.37745 11.919 8.28941ZM8.26719 13.5388C6.83875 12.9057 5.91469 12.0756 5.91469 11.4172C5.91469 10.759 6.83875 9.92464 8.26719 9.29572C8.61422 9.14055 8.99355 9.00219 9.38498 8.87221C9.61497 9.694 9.91761 10.5493 10.2929 11.4257C9.92167 12.2978 9.623 13.1489 9.39707 13.9666C8.99761 13.8365 8.61828 13.694 8.26719 13.5388ZM10.4382 19.5304C9.88937 19.2034 9.65125 17.9581 9.83694 16.3564C9.88134 15.9624 9.95388 15.5472 10.0427 15.1237C10.8336 15.325 11.6971 15.4802 12.6051 15.5808C13.1498 16.3564 13.7147 17.0608 14.2837 17.6772C12.9682 18.9476 11.7334 19.6436 10.8941 19.6436C10.7125 19.6395 10.5592 19.6017 10.4382 19.5304ZM20.0097 16.3355C20.1993 17.9371 19.9653 19.1824 19.4205 19.5137C19.2995 19.5891 19.1421 19.6227 18.9564 19.6227C18.1211 19.6227 16.8824 18.9309 15.5669 17.6688C16.1318 17.0525 16.6968 16.3523 17.2335 15.5765C18.1454 15.4759 19.0089 15.3208 19.7998 15.1154C19.8927 15.5389 19.9653 15.9456 20.0097 16.3355ZM21.5632 13.5388C21.2162 13.694 20.8368 13.8324 20.4454 13.9623C20.2154 13.1406 19.9128 12.2852 19.5375 11.4089C19.9088 10.5368 20.2074 9.68565 20.4333 8.86801C20.8329 8.998 21.2121 9.14055 21.5673 9.29572C22.9957 9.92876 23.9198 10.759 23.9198 11.4172C23.9157 12.0756 22.9916 12.9099 21.5632 13.5388Z" fill="#61DAFB"/>
<path d="M14.9132 13.3334C15.9317 13.3334 16.7573 12.4755 16.7573 11.4172C16.7573 10.359 15.9317 9.50113 14.9132 9.50113C13.8947 9.50113 13.0691 10.359 13.0691 11.4172C13.0691 12.4755 13.8947 13.3334 14.9132 13.3334ZM5.9178 23.8736H5.30906V24.9629H4.96553V22.2701H5.82346C6.11537 22.2701 6.33965 22.3392 6.49628 22.4773C6.65411 22.6153 6.73302 22.8163 6.73302 23.0801C6.73302 23.2479 6.68911 23.3939 6.6013 23.5185C6.51468 23.643 6.39364 23.7361 6.23819 23.7977L6.84694 24.9407V24.9629H6.48027L5.9178 23.8736ZM5.30906 23.5832H5.83415C6.00384 23.5832 6.13852 23.5376 6.23819 23.4463C6.33905 23.3551 6.38948 23.233 6.38948 23.0801C6.38948 22.9137 6.34143 22.7861 6.24531 22.6973C6.15038 22.6085 6.01273 22.5635 5.83236 22.5623H5.30906V23.5832ZM7.96122 25C7.70013 25 7.48771 24.9112 7.32396 24.7336C7.1602 24.5548 7.07833 24.3162 7.07833 24.0179V23.955C7.07833 23.7565 7.11452 23.5796 7.1869 23.4242C7.26048 23.2676 7.36253 23.1455 7.49306 23.058C7.62477 22.9692 7.76717 22.9248 7.92025 22.9248C8.17065 22.9248 8.36527 23.0105 8.50405 23.1819C8.64291 23.3532 8.7123 23.5986 8.7123 23.9179V24.0604H7.40762C7.41236 24.2577 7.46755 24.4174 7.57315 24.5394C7.67995 24.6602 7.81523 24.7207 7.97899 24.7207C8.0953 24.7207 8.19374 24.696 8.27441 24.6467C8.35517 24.5974 8.42573 24.532 8.48627 24.4507L8.6874 24.6134C8.52597 24.8711 8.28398 25 7.96122 25ZM7.92025 23.206C7.78734 23.206 7.6758 23.2565 7.58561 23.3576C7.49543 23.4575 7.43966 23.598 7.4183 23.7793H8.38305V23.7534C8.37357 23.5796 8.32846 23.4451 8.24779 23.3502C8.16704 23.2541 8.05786 23.206 7.92025 23.206ZM10.284 24.9629C10.265 24.9235 10.2496 24.8533 10.2377 24.7521C10.0846 24.9173 9.90191 25 9.6895 25C9.49966 25 9.34365 24.9445 9.22139 24.8335C9.10039 24.7212 9.03984 24.5795 9.03984 24.4081C9.03984 24.1998 9.11582 24.0382 9.26767 23.9236C9.42071 23.8076 9.63555 23.7496 9.91201 23.7496H10.2324V23.5925C10.2324 23.4729 10.198 23.3779 10.1292 23.3077C10.0604 23.2361 9.95884 23.2004 9.82476 23.2004C9.70728 23.2004 9.60884 23.2312 9.52934 23.2929C9.44985 23.3545 9.41006 23.4291 9.41006 23.5167H9.079C9.079 23.4168 9.11284 23.3206 9.18042 23.2281C9.24927 23.1344 9.34184 23.0604 9.45815 23.0062C9.57563 22.952 9.7043 22.9248 9.84434 22.9248C10.0663 22.9248 10.2401 22.9827 10.3659 23.0987C10.4917 23.2134 10.5569 23.3718 10.5617 23.5739V24.495C10.5617 24.6788 10.5842 24.8248 10.6294 24.9333V24.9629H10.284ZM9.7376 24.7022C9.84082 24.7022 9.93872 24.6745 10.0313 24.619C10.1238 24.5635 10.1908 24.4914 10.2324 24.4026V23.992H9.97427C9.57085 23.992 9.36909 24.1146 9.36909 24.36C9.36909 24.4673 9.40356 24.5512 9.47232 24.6115C9.54117 24.6719 9.62959 24.7022 9.7376 24.7022ZM11.8504 24.7207C11.9678 24.7207 12.0705 24.6836 12.1583 24.6097C12.2461 24.5357 12.2947 24.4433 12.3042 24.3322H12.6158C12.6098 24.4469 12.5718 24.556 12.5018 24.6596C12.4318 24.7632 12.3381 24.8458 12.2206 24.9074C12.1043 24.9691 11.9809 25 11.8504 25C11.5881 25 11.3793 24.9093 11.2238 24.7281C11.0696 24.5455 10.9924 24.2965 10.9924 23.9808V23.9236C10.9924 23.7287 11.0268 23.5555 11.0957 23.4039C11.1645 23.2522 11.263 23.1344 11.3912 23.0506C11.5205 22.9667 11.673 22.9248 11.8486 22.9248C12.0646 22.9248 12.2438 22.992 12.3861 23.1264C12.5297 23.2608 12.6062 23.4353 12.6158 23.6498H12.3042C12.2947 23.5203 12.2473 23.4143 12.1618 23.3317C12.0776 23.2479 11.9732 23.206 11.8486 23.206C11.6813 23.206 11.5513 23.2688 11.4588 23.3946C11.3674 23.5191 11.3217 23.6998 11.3217 23.9365V24.0012C11.3217 24.2317 11.3674 24.4093 11.4588 24.5338C11.5502 24.6584 11.6807 24.7207 11.8504 24.7207ZM13.4327 22.4773V22.9618H13.7923V23.2263H13.4327V24.4673C13.4327 24.5474 13.4488 24.6078 13.4808 24.6485C13.5129 24.688 13.5675 24.7077 13.6446 24.7077C13.6825 24.7077 13.7347 24.7003 13.8012 24.6855V24.9629C13.7145 24.9876 13.6303 25 13.5484 25C13.4013 25 13.2904 24.9537 13.2156 24.8612C13.1408 24.7688 13.1035 24.6374 13.1035 24.4673V23.2263H12.7528V22.9618H13.1035V22.4773H13.4327ZM17.1262 24.9629H16.7826L15.4779 22.8878V24.9629H15.1344V22.2701H15.4779L16.7862 24.3545V22.2701H17.1262V24.9629ZM18.8705 24.9629C18.8515 24.9235 18.836 24.8533 18.8242 24.7521C18.6711 24.9173 18.4884 25 18.276 25C18.0861 25 17.93 24.9445 17.8079 24.8335C17.6869 24.7212 17.6263 24.5795 17.6263 24.4081C17.6263 24.1998 17.7022 24.0382 17.8542 23.9236C18.0072 23.8076 18.222 23.7496 18.4985 23.7496H18.8189V23.5925C18.8189 23.4729 18.7844 23.3779 18.7156 23.3077C18.6468 23.2361 18.5453 23.2004 18.4112 23.2004C18.2938 23.2004 18.1953 23.2312 18.1158 23.2929C18.0363 23.3545 17.9965 23.4291 17.9965 23.5167H17.6655C17.6655 23.4168 17.6993 23.3206 17.7669 23.2281C17.8357 23.1344 17.9283 23.0604 18.0446 23.0062C18.1621 22.952 18.2908 22.9248 18.4308 22.9248C18.6527 22.9248 18.8266 22.9827 18.9524 23.0987C19.0781 23.2134 19.1434 23.3718 19.1482 23.5739V24.495C19.1482 24.6788 19.1707 24.8248 19.2158 24.9333V24.9629H18.8705ZM18.3241 24.7022C18.4273 24.7022 18.5252 24.6745 18.6178 24.619C18.7103 24.5635 18.7773 24.4914 18.8189 24.4026V23.992H18.5608C18.1573 23.992 17.9556 24.1146 17.9556 24.36C17.9556 24.4673 17.99 24.5512 18.0588 24.6115C18.1276 24.6719 18.2161 24.7022 18.3241 24.7022ZM20.1111 22.4773V22.9618H20.4707V23.2263H20.1111V24.4673C20.1111 24.5474 20.1272 24.6078 20.1592 24.6485C20.1912 24.688 20.2458 24.7077 20.323 24.7077C20.3609 24.7077 20.4131 24.7003 20.4796 24.6855V24.9629C20.3929 24.9876 20.3087 25 20.2268 25C20.0797 25 19.9687 24.9537 19.8939 24.8612C19.8192 24.7688 19.7818 24.6374 19.7818 24.4673V23.2263H19.4312V22.9618H19.7818V22.4773H20.1111ZM21.2147 24.9629H20.8854V22.9618H21.2147V24.9629ZM20.8587 22.431C20.8587 22.3756 20.8747 22.3287 20.9068 22.2904C20.94 22.2522 20.9886 22.2331 21.0527 22.2331C21.1168 22.2331 21.1654 22.2522 21.1987 22.2904C21.2319 22.3287 21.2485 22.3756 21.2485 22.431C21.2485 22.4865 21.2319 22.5327 21.1987 22.5697C21.1654 22.6067 21.1168 22.6252 21.0527 22.6252C20.9886 22.6252 20.94 22.6067 20.9068 22.5697C20.8747 22.5327 20.8587 22.4865 20.8587 22.431ZM22.3788 24.4988L22.8557 22.9618H23.1922L22.5016 24.9629H22.2506L21.5529 22.9618H21.8893L22.3788 24.4988ZM24.2833 25C24.0223 25 23.8098 24.9112 23.6461 24.7336C23.4823 24.5548 23.4005 24.3162 23.4005 24.0179V23.955C23.4005 23.7565 23.4367 23.5796 23.509 23.4242C23.5826 23.2676 23.6846 23.1455 23.8152 23.058C23.9469 22.9692 24.0893 22.9248 24.2423 22.9248C24.4927 22.9248 24.6873 23.0105 24.8262 23.1819C24.965 23.3532 25.0345 23.5986 25.0345 23.9179V24.0604H23.7297C23.7345 24.2577 23.7896 24.4174 23.8953 24.5394C24.002 24.6602 24.1374 24.7207 24.3011 24.7207C24.4174 24.7207 24.5159 24.696 24.5966 24.6467C24.6772 24.5974 24.7479 24.532 24.8084 24.4507L25.0096 24.6134C24.8481 24.8711 24.606 25 24.2833 25ZM24.2423 23.206C24.1095 23.206 23.9979 23.2565 23.9078 23.3576C23.8175 23.4575 23.7618 23.598 23.7405 23.7793H24.7051V23.7534C24.6956 23.5796 24.6505 23.4451 24.5699 23.3502C24.4892 23.2541 24.38 23.206 24.2423 23.206Z" fill="#61DAFB"/>
</svg>
