<svg width="30" height="30" viewBox="0 0 30 30" fill="none" xmlns="http://www.w3.org/2000/svg">
<g clip-path="url(#clip0_724_6)">
<path d="M0 15V0H30V30H0" fill="#007ACC"/>
<path d="M6.5775 15.0525V16.275H10.4775V27.375H13.245V16.275H17.145V15.075C17.145 14.4 17.145 13.8525 17.115 13.8375C17.115 13.815 14.7375 13.8075 11.85 13.8075L6.6 13.83V15.06L6.5775 15.0525ZM24.105 13.8C24.87 13.98 25.455 14.325 25.98 14.8725C26.2575 15.1725 26.67 15.6975 26.7 15.8325C26.7 15.8775 25.4025 16.755 24.615 17.2425C24.585 17.265 24.465 17.1375 24.345 16.9425C23.955 16.3875 23.5575 16.1475 22.935 16.1025C22.035 16.0425 21.435 16.515 21.435 17.3025C21.435 17.5425 21.48 17.6775 21.57 17.8725C21.7725 18.285 22.1475 18.5325 23.31 19.0425C25.455 19.965 26.385 20.5725 26.9475 21.4425C27.585 22.4175 27.7275 23.9475 27.3 25.095C26.82 26.3475 25.65 27.195 23.9775 27.4725C23.4525 27.5625 22.2525 27.5475 21.69 27.45C20.49 27.225 19.3425 26.625 18.6375 25.8525C18.36 25.5525 17.8275 24.75 17.8575 24.6975L18.1425 24.5175L19.2675 23.865L20.115 23.37L20.31 23.6325C20.5575 24.0225 21.1125 24.5475 21.435 24.7275C22.41 25.23 23.715 25.1625 24.36 24.5775C24.6375 24.3225 24.7575 24.0525 24.7575 23.6775C24.7575 23.3325 24.705 23.175 24.5325 22.9125C24.2925 22.5825 23.8125 22.3125 22.4625 21.7125C20.91 21.0525 20.25 20.6325 19.635 19.9875C19.2825 19.5975 18.96 18.99 18.81 18.4875C18.6975 18.0525 18.66 16.9875 18.765 16.56C19.0875 15.06 20.22 14.01 21.84 13.71C22.365 13.605 23.6025 13.65 24.12 13.785L24.105 13.8Z" fill="white"/>
</g>
<defs>
<clipPath id="clip0_724_6">
<rect width="30" height="30" fill="white"/>
</clipPath>
</defs>
</svg>
