<svg width="30" height="30" viewBox="0 0 30 30" fill="none" xmlns="http://www.w3.org/2000/svg">
<g clip-path="url(#clip0_731_56)">
<path d="M27.7848 0H2.2164C0.9924 0 0 0.9624 0 2.1492V27.8496C0 29.0376 0.9924 30 2.2164 30H27.7848C29.0088 30 30 29.0364 30 27.8496V2.1492C30 0.9624 29.0088 0 27.7848 0Z" fill="#4F5D75"/>
<path d="M22.0152 17.4444C20.8344 17.4444 19.7292 16.944 18.7236 16.1292L18.9684 14.9796L18.9792 14.9376C19.1976 13.7136 19.8888 11.658 22.0152 11.658C23.61 11.658 24.9072 12.9576 24.9072 14.5536C24.9024 16.1448 23.6052 17.4444 22.0152 17.4444ZM22.0152 8.724C19.2984 8.724 17.1924 10.4916 16.3368 13.398C15.0288 11.4336 14.04 9.0756 13.4604 7.0896H10.5372V14.7072C10.5372 16.2084 9.3144 17.4324 7.8144 17.4324C6.3144 17.4324 5.0928 16.2084 5.0928 14.7072V7.0896H2.1684V14.7072C2.1576 17.8272 4.6944 20.388 7.8096 20.388C10.9248 20.388 13.4616 17.8272 13.4616 14.7072V13.4292C14.0304 14.616 14.7264 15.8136 15.5724 16.8792L13.7808 25.3116H16.7748L18.072 19.1952C19.2096 19.9248 20.5176 20.382 22.0176 20.382C25.224 20.382 27.834 17.7516 27.834 14.5416C27.8316 11.3376 25.2216 8.724 22.0152 8.724Z" fill="white"/>
</g>
<defs>
<clipPath id="clip0_731_56">
<rect width="30" height="30" fill="white"/>
</clipPath>
</defs>
</svg>
