<svg width="70" height="70" viewBox="0 0 70 70" fill="none" xmlns="http://www.w3.org/2000/svg">
<g clip-path="url(#clip0_743_10)">
<path d="M35 70C54.33 70 70 54.33 70 35C70 15.67 54.33 0 35 0C15.67 0 0 15.67 0 35C0 54.33 15.67 70 35 70Z" fill="#EF8354"/>
<path d="M35 59.6117C48.7638 59.6117 59.9216 58.732 59.9216 57.6469C59.9216 56.5618 48.7638 55.6821 35 55.6821C21.2362 55.6821 10.0784 56.5618 10.0784 57.6469C10.0784 58.732 21.2362 59.6117 35 59.6117Z" fill="#2D3142"/>
<path d="M9.02098 9.19064H60.9792C62.6862 9.19064 64.083 10.5874 64.083 12.2944V44.3012H5.91747V12.2943C5.91747 10.5872 7.31418 9.19051 9.02125 9.19051L9.02098 9.19064Z" fill="#666666"/>
<path d="M8.02458 42.1937H61.975V12.2943C61.975 11.7503 61.5226 11.2979 60.979 11.2979H9.02099C8.47726 11.2979 8.02499 11.7503 8.02499 12.2943V42.1937H8.02458Z" fill="white"/>
<path d="M64.0825 44.3011V47.6954C64.0825 49.4028 62.5431 50.7992 60.6613 50.7992H9.33885C7.45706 50.7992 5.9176 49.4028 5.9176 47.6954V44.3011H64.0828H64.0825Z" fill="white"/>
<path d="M35 48.4831C35.5902 48.4831 36.0686 48.0046 36.0686 47.4145C36.0686 46.8243 35.5902 46.3459 35 46.3459C34.4098 46.3459 33.9314 46.8243 33.9314 47.4145C33.9314 48.0046 34.4098 48.4831 35 48.4831Z" fill="#B6B6B8"/>
<path d="M41.7082 55.6819L46.6431 57.2631H23.3565L27.3381 55.6819V50.7992H41.708V55.6819H41.7082Z" fill="#C2C2C4"/>
<path d="M27.3384 55.6819H41.7084L46.6432 57.2631V57.944H35.0003H23.3568V57.2631L27.3384 55.6819Z" fill="#ECF0F1"/>
<path d="M27.3384 50.7991H41.7084V55.6817L27.3384 50.7991Z" fill="#919191"/>
<path d="M15.9402 13.3301H10.37V14.2893H15.9402V13.3301Z" fill="#20D0C2"/>
<path d="M26.4649 13.3301H16.5844V14.2893H26.4649V13.3301Z" fill="#FF5B62"/>
<path d="M35.3534 13.3301H26.9411V14.2893H35.3534V13.3301Z" fill="#EF8354"/>
<path d="M19.1767 17.2762H16.2214V18.2354H19.1767V17.2762Z" fill="#EF8354"/>
<path d="M24.7606 17.2762H19.5181V18.2354H24.7606V17.2762Z" fill="#FF5B62"/>
<path d="M29.4759 17.2762H25.0131V18.2354H29.4759V17.2762Z" fill="#20D0C2"/>
<path d="M15.5269 18.9614H10.3348V19.9206H15.5269V18.9614Z" fill="#20D0C2"/>
<path d="M25.3337 18.9614H16.126V19.9206H25.3337V18.9614Z" fill="#EF8354"/>
<path d="M21.0696 20.9754H15.8776V21.9346H21.0696V20.9754Z" fill="#FF5B62"/>
<path d="M30.8763 20.9754H21.6685V21.9346H30.8763V20.9754Z" fill="#20D0C2"/>
<path d="M16.4521 22.9008H11.26V23.86H16.4521V22.9008Z" fill="#EF8354"/>
<path d="M20.854 22.9008H17.1384V23.86H20.854V22.9008Z" fill="#20D0C2"/>
<path d="M32.1619 22.9008H21.7287V23.86H32.1619V22.9008Z" fill="#FF5B62"/>
<path d="M36.6416 22.9008H32.926V23.86H36.6416V22.9008Z" fill="#20D0C2"/>
<path d="M24.0443 24.9148H10.1507V25.874H24.0443V24.9148Z" fill="#20D0C2"/>
<path d="M28.3657 24.9148H24.6501V25.874H28.3657V24.9148Z" fill="#EF8354"/>
<path d="M34.0871 24.9148H28.8951V25.874H34.0871V24.9148Z" fill="#FF5B62"/>
<path d="M16.8413 15.1885H16.4575V16.3391H16.8413V15.1885Z" fill="white"/>
<path d="M26.7969 18.9614H26.4131V20.112H26.7969V18.9614Z" fill="white"/>
<path d="M15.9402 27.7531H10.37V28.7123H15.9402V27.7531Z" fill="#20D0C2"/>
<path d="M26.4649 27.7531H16.5844V28.7123H26.4649V27.7531Z" fill="#FF5B62"/>
<path d="M35.3534 27.7531H26.9411V28.7123H35.3534V27.7531Z" fill="#EF8354"/>
<path d="M19.1767 31.6978H16.2214V32.657H19.1767V31.6978Z" fill="#EF8354"/>
<path d="M24.7606 31.6978H19.5181V32.657H24.7606V31.6978Z" fill="#FF5B62"/>
<path d="M29.4759 31.6978H25.0131V32.657H29.4759V31.6978Z" fill="#20D0C2"/>
<path d="M15.5269 33.3844H10.3348V34.3436H15.5269V33.3844Z" fill="#20D0C2"/>
<path d="M25.3337 33.3844H16.126V34.3436H25.3337V33.3844Z" fill="#EF8354"/>
<path d="M16.8413 29.6101H16.4575V30.7608H16.8413V29.6101Z" fill="white"/>
<path d="M26.7969 33.3844H26.4131V34.535H26.7969V33.3844Z" fill="white"/>
<path d="M59.8247 13.3301H39.6789V17.9763H59.8247V13.3301Z" fill="#DCE3DB"/>
<path d="M39.6786 18.6345H49.2733V24.7666H39.6786V18.6345Z" fill="#DCE3DB"/>
<path d="M50.2302 18.6345H59.8248V24.7666H50.2302V18.6345Z" fill="#DCE3DB"/>
<path d="M39.7063 25.6458H59.7975V25.9428H39.7063V25.6458ZM39.7063 28.4532H52.9043V28.7502H39.7063V28.4532ZM39.7063 27.5173H59.7975V27.8142H39.7063V27.5173ZM39.7063 26.5817H59.7975V26.8786H39.7063V26.5817Z" fill="#DCE3DB"/>
<path d="M39.655 29.4796H45.6423V35.4159H39.655V29.4796ZM53.8619 29.4796H59.8495V35.4159H53.8619V29.4796ZM46.7585 29.4796H52.7458V35.4159H46.7585V29.4796Z" fill="#DCE3DB"/>
<path d="M39.7063 36.2425H59.7975V36.5395H39.7063V36.2425ZM39.7063 39.0499H52.9043V39.3468H39.7063V39.0499ZM39.7063 38.114H59.7975V38.411H39.7063V38.114ZM39.7063 37.1785H59.7975V37.4754H39.7063V37.1785Z" fill="#DCE3DB"/>
</g>
<defs>
<clipPath id="clip0_743_10">
<rect width="70" height="70" fill="white"/>
</clipPath>
</defs>
</svg>
