<svg width="30" height="30" viewBox="0 0 30 30" fill="none" xmlns="http://www.w3.org/2000/svg">
<g clip-path="url(#clip0_802_6)">
<path d="M14.9829 30C6.60603 29.839 0.058575 22.9722 0 14.9829C0.162875 6.61228 6.99323 0.058575 14.9829 0C23.3539 0.16735 29.9414 6.98245 30 14.9829C29.8345 23.3602 22.983 29.9414 14.9829 30ZM14.9829 1.06285C7.2049 1.216 1.08268 7.5558 1.02858 14.9829C1.17985 22.767 7.55613 28.883 14.9829 28.9371C22.767 28.7858 28.883 22.4096 28.9371 14.9829C28.7903 7.19918 22.3989 1.1169 14.9829 1.06285ZM11.3829 27.2571L15.2229 16.2171L19.2343 27.0171C16.5317 27.9219 13.9767 27.9767 11.3829 27.2571ZM8.43428 7.74857C7.02853 7.93967 5.66138 8.0078 4.32 7.9543C6.86693 4.31302 10.9449 2.26447 14.9829 2.22857C18.2856 2.29107 21.3646 3.53953 23.6229 5.58858C22.5755 5.51115 21.9484 5.97047 21.4971 6.75427C20.8413 8.77775 22.2272 10.2756 23.0057 11.7943C23.7418 13.1819 23.6835 14.7598 23.28 16.1143L21.36 22.6629L16.7315 8.91428C17.2137 8.8694 17.6992 8.85495 18.1372 8.77712C18.6556 8.6617 18.7693 8.17928 18.4115 7.8857C18.2972 7.7943 18.1715 7.7486 18.0343 7.7486L15.2572 7.95433H13.1486C12.5533 7.98948 10.8723 7.4144 10.7314 8.19435C10.6586 8.49477 10.8829 8.73025 11.1428 8.77718C11.6015 8.8366 12.1269 8.90408 12.5485 8.9486L14.5714 14.3658L11.76 22.6629L7.09715 8.91428C7.59055 8.87143 8.09047 8.85647 8.53715 8.77712C8.9029 8.7313 9.06285 8.54848 9.01715 8.22855C8.95233 7.94413 8.6988 7.75195 8.43428 7.74857ZM3.29142 9.8743L9.42858 26.4686C7.21415 25.3771 5.46343 23.772 4.21713 21.8571C1.93725 18.2188 1.69743 13.603 3.29142 9.8743ZM27.2743 18.3943C26.2667 21.6845 24.2089 24.4096 21.36 26.0572C21.4971 25.6914 21.7143 25.0743 22.0115 24.2057L25.5772 13.8514C25.9201 12.8457 26.16 11.7257 26.2972 10.4914C26.3435 9.98645 26.345 9.47733 26.2629 9.01713C27.7238 12.1682 28.1383 15.2894 27.2743 18.3943Z" fill="black"/>
</g>
<defs>
<clipPath id="clip0_802_6">
<rect width="30" height="30" fill="white"/>
</clipPath>
</defs>
</svg>
