<svg width="45" height="30" viewBox="0 0 45 30" fill="none" xmlns="http://www.w3.org/2000/svg">
<g clip-path="url(#clip0_731_66)">
<path d="M29.9755 14.563C25.8495 12.4702 21.8989 10.5463 17.8606 8.53754V20.5544C22.1101 18.3618 26.5892 16.3538 29.993 14.563H29.9755Z" fill="white"/>
<path d="M29.9755 14.563C25.8495 12.4702 17.8606 8.53754 17.8606 8.53754L28.512 15.3324C28.512 15.3324 26.5717 16.3538 29.9755 14.563Z" fill="#E8E0E0"/>
<path d="M18.637 29.9611C10.0669 29.8113 7.13986 29.6766 5.34069 29.3248C4.12344 29.091 3.06565 28.572 2.29004 27.8192C1.6906 27.2495 1.21388 26.3802 0.844032 25.1741C0.526778 24.1694 0.403216 23.3334 0.227056 21.2914C-0.0426101 16.6827 -0.106896 12.9148 0.227056 8.70477C0.502566 6.37985 0.636147 3.6199 2.4662 2.00973C3.3303 1.25615 4.3355 0.771197 5.46426 0.570718C7.22752 0.252963 14.7398 0.00177002 22.5167 0.00177002C30.276 0.00177002 37.805 0.252963 39.5699 0.570718C40.98 0.821911 42.3025 1.5747 43.0789 2.54539C44.7487 5.0383 44.7779 8.1382 44.9474 10.563C45.0175 11.7183 45.0175 18.2786 44.9474 19.434C44.6836 23.266 44.4715 24.6218 43.872 26.0276C43.5014 26.9151 43.1849 27.3834 42.6373 27.9024C41.7783 28.7011 40.6833 29.2324 39.4981 29.4254C32.0819 29.9547 25.7844 30.0696 18.637 29.9611ZM29.9938 14.563C25.8679 12.4703 21.9172 10.5297 17.8789 8.52093V20.5386C22.1285 18.346 26.6084 16.3372 30.0114 14.5464L29.9938 14.563Z" fill="#4F5D75"/>
</g>
<defs>
<clipPath id="clip0_731_66">
<rect width="45" height="30" fill="white"/>
</clipPath>
</defs>
</svg>
